<svg width="10" height="12" viewBox="0 0 10 12" fill="none" xmlns="http://www.w3.org/2000/svg">
<path d="M9.13086 3.66211C9.32422 3.46875 9.32422 3.125 9.13086 2.93164C8.9375 2.73828 8.59375 2.73828 8.40039 2.93164L7.77734 3.55469C7.11133 2.97461 6.25195 2.56641 5.32812 2.45898V1.40625H6.01562C6.29492 1.40625 6.53125 1.16992 6.53125 0.890625C6.53125 0.611328 6.29492 0.375 6.01562 0.375H3.60938C3.33008 0.375 3.09375 0.611328 3.09375 0.890625C3.09375 1.16992 3.33008 1.40625 3.60938 1.40625H4.29688V2.48047C2.0625 2.7168 0.34375 4.60742 0.34375 6.90625C0.34375 9.37695 2.3418 11.375 4.8125 11.375C7.2832 11.375 9.28125 9.37695 9.28125 6.90625C9.28125 5.93945 8.98047 5.05859 8.46484 4.32812L9.13086 3.66211ZM4.8125 10.3438C2.92188 10.3438 1.375 8.79688 1.375 6.90625C1.375 5.01562 2.92188 3.46875 4.8125 3.46875C6.70312 3.46875 8.25 5.01562 8.25 6.90625C8.25 8.79688 6.70312 10.3438 4.8125 10.3438ZM4.8125 4.5C4.5332 4.5 4.29688 4.73633 4.29688 5.01562V7.42188C4.29688 7.70117 4.5332 7.9375 4.8125 7.9375C5.0918 7.9375 5.32812 7.70117 5.32812 7.42188V5.01562C5.32812 4.73633 5.0918 4.5 4.8125 4.5Z" fill="#30BAEF"/>
</svg>
