<svg width="30" height="24" viewBox="0 0 30 24" fill="none" xmlns="http://www.w3.org/2000/svg">
<path d="M4.17188 18.6562L14.3438 20.9062C14.5781 20.9531 14.7656 21 15 21C15.2344 21 15.4219 20.9531 15.6562 20.9062L25.8281 18.6562C26.5312 18.5156 27 17.9062 27 17.2031V1.875C27 0.796875 26.1562 0 25.1719 0H25.125C24.9844 0 24.5156 0.09375 15 1.54688C5.48438 0.09375 5.01562 0 4.875 0H4.82812C3.84375 0 3 0.796875 3 1.875V17.2031C3 17.9062 3.46875 18.5156 4.17188 18.6562ZM15.75 2.95312L21.2812 2.10938C23.9062 1.6875 24.8906 1.54688 25.1719 1.5C25.3125 1.5 25.5 1.64062 25.5 1.875V17.2031L15.75 19.3594V2.95312ZM4.5 1.875C4.5 1.73438 4.54688 1.64062 4.59375 1.59375C4.64062 1.54688 4.6875 1.5 4.82812 1.5C5.10938 1.54688 6.09375 1.6875 8.71875 2.10938L14.25 2.95312V19.3594L4.5 17.2031V1.875ZM29.25 1.5C28.8281 1.5 28.5 1.82812 28.5 2.25V18C28.5 19.0312 27.75 19.9688 26.6719 20.2031L15 22.5L3.32812 20.2031C2.25 19.9688 1.5 19.0312 1.5 18V2.25C1.5 1.82812 1.17188 1.5 0.75 1.5C0.328125 1.5 0 1.82812 0 2.25V18C0 19.7812 1.26562 21.3281 3.04688 21.6562L14.8594 24H15H15.1406L26.9531 21.6562C28.7344 21.3281 30 19.7812 30 18V2.25C30 1.82812 29.6719 1.5 29.25 1.5Z" fill="#1E252B"/>
</svg>
