<svg width="38" height="38" viewBox="0 0 38 38" fill="none" xmlns="http://www.w3.org/2000/svg">
<path fill-rule="evenodd" clip-rule="evenodd" d="M28.0923 9.53078C27.8075 9.24602 27.3459 9.24602 27.0611 9.53078L18.8115 17.7804L10.5619 9.53078C10.2772 9.24602 9.81551 9.24602 9.53075 9.53077C9.24599 9.81553 9.24599 10.2772 9.53075 10.562L17.7803 18.8116L9.53075 27.0611C9.24599 27.3459 9.24599 27.8076 9.53075 28.0923C9.81551 28.3771 10.2772 28.3771 10.5619 28.0923L18.8115 19.8427L27.0611 28.0923C27.3459 28.3771 27.8075 28.3771 28.0923 28.0923C28.3771 27.8076 28.3771 27.3459 28.0923 27.0611L19.8427 18.8116L28.0923 10.562C28.3771 10.2772 28.3771 9.81553 28.0923 9.53078Z" fill="#A3B2B7"/>
</svg>
