<svg width="14" height="14" viewBox="0 0 14 14" fill="none" xmlns="http://www.w3.org/2000/svg">
<path d="M0.636364 8.90918C0.467589 8.90918 0.305728 8.97623 0.186387 9.09557C0.0670452 9.21491 0 9.37677 0 9.54554V11.4546C0 12.1297 0.268181 12.7772 0.745546 13.2545C1.22291 13.7319 1.87036 14.0001 2.54545 14.0001H11.4545C12.1296 14.0001 12.7771 13.7319 13.2545 13.2545C13.7318 12.7772 14 12.1297 14 11.4546V9.54554C14 9.37677 13.933 9.21491 13.8136 9.09557C13.6943 8.97623 13.5324 8.90918 13.3636 8.90918C13.1949 8.90918 13.033 8.97623 12.9137 9.09557C12.7943 9.21491 12.7273 9.37677 12.7273 9.54554V11.4546C12.7273 11.7922 12.5932 12.1159 12.3545 12.3546C12.1158 12.5933 11.7921 12.7274 11.4545 12.7274H2.54545C2.20791 12.7274 1.88418 12.5933 1.6455 12.3546C1.40682 12.1159 1.27273 11.7922 1.27273 11.4546V9.54554C1.27273 9.37677 1.20568 9.21491 1.08634 9.09557C0.966999 8.97623 0.805138 8.90918 0.636364 8.90918Z" fill="white"/>
<path d="M6.9997 0C6.83092 0 6.66906 0.0670452 6.54972 0.186387C6.43038 0.305728 6.36333 0.46759 6.36333 0.636364V8.59091L4.89493 7.18455C4.77299 7.06767 4.60961 7.00402 4.44074 7.0076C4.27188 7.01118 4.11135 7.0817 3.99447 7.20364C3.87759 7.32558 3.81395 7.48895 3.81753 7.65782C3.82111 7.82669 3.89162 7.98722 4.01356 8.10409L6.55902 10.5398C6.67752 10.6535 6.83543 10.7171 6.9997 10.7171C7.16397 10.7171 7.32187 10.6535 7.44038 10.5398L9.98584 8.10409C10.0462 8.04622 10.0946 7.97702 10.1282 7.90045C10.1619 7.82388 10.1801 7.74143 10.1819 7.65782C10.1836 7.5742 10.1689 7.49106 10.1386 7.41313C10.1082 7.3352 10.0628 7.26402 10.0049 7.20364C9.94705 7.14326 9.87786 7.09487 9.80129 7.06123C9.72471 7.0276 9.64227 7.00937 9.55865 7.0076C9.47504 7.00583 9.39189 7.02054 9.31396 7.0509C9.23603 7.08126 9.16485 7.12668 9.10447 7.18455L7.63606 8.59091V0.636364C7.63606 0.46759 7.56902 0.305728 7.44968 0.186387C7.33033 0.0670452 7.16847 0 6.9997 0Z" fill="white"/>
</svg>
