<svg width="519" height="376" viewBox="0 0 519 376" fill="none" xmlns="http://www.w3.org/2000/svg">
<path d="M488.162 230.708H152.241C150.815 230.708 149.447 231.275 148.438 232.283C147.43 233.292 146.863 234.66 146.863 236.087C146.863 237.513 147.43 238.882 148.438 239.89C149.447 240.899 150.815 241.466 152.241 241.466H161.756V368.832C161.756 370.258 162.323 371.626 163.332 372.635C164.34 373.644 165.708 374.211 167.134 374.211C168.561 374.211 169.929 373.644 170.937 372.635C171.946 371.626 172.512 370.258 172.512 368.832L172.594 241.466H467.064V368.832C467.064 370.258 467.63 371.626 468.639 372.635C469.647 373.644 471.015 374.211 472.442 374.211C473.868 374.211 475.236 373.644 476.244 372.635C477.253 371.626 477.82 370.258 477.82 368.832V244.302L479.384 241.466H488.162C489.588 241.466 490.956 240.899 491.965 239.89C492.973 238.882 493.54 237.513 493.54 236.087C493.54 234.66 492.973 233.292 491.965 232.283C490.956 231.275 489.588 230.708 488.162 230.708Z" fill="#A3B2B7"/>
<path d="M338.482 233.523H236.728C234.758 233.521 232.869 232.737 231.476 231.344C230.083 229.95 229.299 228.061 229.297 226.091V170.06C229.299 168.089 230.083 166.2 231.476 164.807C232.869 163.413 234.758 162.63 236.728 162.627H338.482C340.453 162.63 342.342 163.413 343.735 164.807C345.128 166.2 345.912 168.089 345.914 170.06V226.091C345.912 228.061 345.128 229.95 343.735 231.344C342.342 232.737 340.453 233.521 338.482 233.523Z" fill="#1E252B"/>
<path d="M338.477 168.347H236.724C236.27 168.348 235.835 168.529 235.514 168.85C235.193 169.171 235.013 169.606 235.012 170.06V226.091C235.013 226.545 235.193 226.981 235.514 227.302C235.835 227.623 236.27 227.803 236.724 227.804H338.477C338.931 227.803 339.366 227.623 339.687 227.302C340.008 226.981 340.189 226.545 340.19 226.091V170.06C340.189 169.606 340.008 169.171 339.687 168.85C339.366 168.529 338.931 168.348 338.477 168.347Z" fill="white"/>
<path d="M296.283 208.018C296.283 208.018 284.102 205.21 277.402 210.357C270.703 215.504 285.929 227.201 285.929 227.201L296.283 208.018Z" fill="#121212"/>
<path d="M288.201 202.713C294.547 202.713 299.691 197.568 299.691 191.221C299.691 184.875 294.547 179.729 288.201 179.729C281.855 179.729 276.711 184.875 276.711 191.221C276.711 197.568 281.855 202.713 288.201 202.713Z" fill="#FE8C62"/>
<path d="M279.312 175.089C280.078 173.789 281.189 172.725 282.522 172.016C283.854 171.307 285.357 170.98 286.863 171.071C288.439 171.269 289.977 171.699 291.427 172.349L298.938 175.279C300.882 176.037 303.011 176.966 303.854 178.875C304.637 180.646 304.053 182.692 303.461 184.536L300.651 193.302C300.34 191.318 299.806 189.376 299.059 187.512C298.299 185.635 296.928 184.07 295.166 183.073C293.215 182.072 290.916 182.092 288.725 182.198C285.623 182.347 282.251 182.742 280.047 184.93C278.877 186.173 278.083 187.722 277.759 189.398C277.44 191.065 277.28 192.759 277.28 194.456C276.007 192.269 274.936 189.971 274.078 187.591C273.372 185.819 272.97 183.94 272.889 182.034C272.815 180.112 273.452 178.23 274.679 176.749C275.302 176.025 276.115 175.49 277.026 175.203C277.937 174.916 278.909 174.89 279.835 175.126L279.312 175.089Z" fill="#121212"/>
<path d="M315.632 217.982C315.524 217.594 315.304 217.246 315 216.983C314.695 216.719 314.319 216.551 313.92 216.501C313.893 216.482 313.865 216.466 313.837 216.451L296.684 206.837C296.194 206.562 295.617 206.487 295.073 206.627C294.53 206.767 294.061 207.111 293.764 207.588L289.073 215.185L282.007 208.118L281.895 208.005C281.532 207.643 281.054 207.419 280.543 207.375C280.032 207.33 279.521 207.467 279.101 207.761L265.004 217.634C264.98 217.634 264.955 217.643 264.93 217.643C264.255 217.755 263.639 218.094 263.183 218.604C262.727 219.114 262.459 219.765 262.423 220.448L262.059 227.804H318.354L315.632 217.982Z" fill="#30BAEF"/>
<path d="M347.055 226.662H336.193C336.193 226.359 336.073 226.068 335.858 225.853C335.644 225.639 335.353 225.519 335.05 225.519H331.62C331.317 225.519 331.026 225.639 330.812 225.853C330.597 226.068 330.477 226.359 330.477 226.662H327.047C327.047 226.359 326.926 226.068 326.712 225.853C326.498 225.639 326.207 225.519 325.904 225.519H322.474C322.17 225.519 321.88 225.639 321.665 225.853C321.451 226.068 321.33 226.359 321.33 226.662H317.9C317.9 226.359 317.78 226.068 317.566 225.853C317.351 225.639 317.06 225.519 316.757 225.519H313.327C313.024 225.519 312.733 225.639 312.519 225.853C312.304 226.068 312.184 226.359 312.184 226.662H308.754C308.754 226.359 308.634 226.068 308.419 225.853C308.205 225.639 307.914 225.519 307.611 225.519H304.181C303.878 225.519 303.587 225.639 303.372 225.853C303.158 226.068 303.038 226.359 303.038 226.662H299.608C299.608 226.359 299.487 226.068 299.273 225.853C299.058 225.639 298.768 225.519 298.464 225.519H295.034C294.731 225.519 294.44 225.639 294.226 225.853C294.012 226.068 293.891 226.359 293.891 226.662H290.461C290.461 226.359 290.341 226.068 290.126 225.853C289.912 225.639 289.621 225.519 289.318 225.519H285.888C285.585 225.519 285.294 225.639 285.08 225.853C284.865 226.068 284.745 226.359 284.745 226.662H281.315C281.315 226.359 281.194 226.068 280.98 225.853C280.765 225.639 280.475 225.519 280.171 225.519H276.742C276.438 225.519 276.148 225.639 275.933 225.853C275.719 226.068 275.598 226.359 275.598 226.662H272.168C272.168 226.359 272.048 226.068 271.833 225.853C271.619 225.639 271.328 225.519 271.025 225.519H267.595C267.292 225.519 267.001 225.639 266.787 225.853C266.572 226.068 266.452 226.359 266.452 226.662H263.022C263.022 226.359 262.901 226.068 262.687 225.853C262.473 225.639 262.182 225.519 261.879 225.519H258.449C258.145 225.519 257.855 225.639 257.64 225.853C257.426 226.068 257.305 226.359 257.305 226.662H253.875C253.875 226.359 253.755 226.068 253.541 225.853C253.326 225.639 253.035 225.519 252.732 225.519H249.302C248.999 225.519 248.708 225.639 248.494 225.853C248.279 226.068 248.159 226.359 248.159 226.662H244.729C244.729 226.359 244.609 226.068 244.394 225.853C244.18 225.639 243.889 225.519 243.586 225.519H240.156C239.853 225.519 239.562 225.639 239.347 225.853C239.133 226.068 239.013 226.359 239.013 226.662H228.151C227.242 226.663 226.371 227.025 225.729 227.669C225.087 228.312 224.727 229.184 224.727 230.092C224.727 231.001 225.087 231.873 225.729 232.516C226.371 233.159 227.242 233.522 228.151 233.523H347.055C347.964 233.523 348.837 233.162 349.48 232.518C350.123 231.875 350.485 231.002 350.485 230.092C350.485 229.183 350.123 228.31 349.48 227.667C348.837 227.023 347.964 226.662 347.055 226.662Z" fill="#1E252B"/>
<path d="M210.47 206.741V229.519H153.412C151.883 229.572 150.359 229.317 148.931 228.768C147.503 228.22 146.2 227.39 145.1 226.327C143.999 225.264 143.124 223.991 142.527 222.582C141.929 221.174 141.621 219.66 141.621 218.13C141.621 216.6 141.929 215.086 142.527 213.677C143.124 212.269 143.999 210.996 145.1 209.933C146.2 208.87 147.503 208.04 148.931 207.491C150.359 206.943 151.883 206.688 153.412 206.741H210.47Z" fill="#EDEEEF"/>
<path d="M211.872 229.343C211.871 229.575 211.779 229.798 211.615 229.962C211.451 230.127 211.228 230.219 210.996 230.219H152.395C149.212 230.219 146.16 228.954 143.909 226.704C141.659 224.453 140.395 221.4 140.395 218.217C140.395 215.033 141.659 211.981 143.909 209.73C146.16 207.479 149.212 206.214 152.395 206.214H210.996C211.228 206.214 211.451 206.307 211.615 206.471C211.779 206.635 211.872 206.858 211.872 207.09C211.872 207.323 211.779 207.546 211.615 207.71C211.451 207.874 211.228 207.966 210.996 207.966H152.395C149.678 207.969 147.074 209.05 145.154 210.972C143.234 212.894 142.156 215.5 142.156 218.217C142.156 220.934 143.234 223.539 145.154 225.461C147.074 227.383 149.678 228.464 152.395 228.467H210.996C211.228 228.467 211.451 228.559 211.615 228.723C211.779 228.888 211.871 229.11 211.872 229.343Z" fill="#30BAEF"/>
<path d="M210.469 211.997H149.153C149.13 211.998 149.107 211.993 149.086 211.984C149.064 211.976 149.045 211.963 149.028 211.947C149.012 211.93 148.999 211.911 148.99 211.89C148.981 211.868 148.977 211.845 148.977 211.822C148.977 211.799 148.981 211.776 148.99 211.755C148.999 211.734 149.012 211.714 149.028 211.698C149.045 211.682 149.064 211.669 149.086 211.66C149.107 211.651 149.13 211.647 149.153 211.647H210.469C210.515 211.647 210.56 211.666 210.592 211.699C210.625 211.732 210.643 211.776 210.643 211.822C210.643 211.868 210.625 211.913 210.592 211.946C210.56 211.979 210.515 211.997 210.469 211.997Z" fill="#A3B2B7"/>
<path d="M210.469 216.202H149.153C149.13 216.203 149.107 216.198 149.086 216.189C149.064 216.181 149.045 216.168 149.028 216.152C149.012 216.135 148.999 216.116 148.99 216.095C148.981 216.073 148.977 216.05 148.977 216.027C148.977 216.004 148.981 215.981 148.99 215.96C148.999 215.939 149.012 215.919 149.028 215.903C149.045 215.887 149.064 215.874 149.086 215.865C149.107 215.856 149.13 215.852 149.153 215.852H210.469C210.515 215.852 210.56 215.871 210.592 215.904C210.625 215.937 210.643 215.981 210.643 216.027C210.643 216.074 210.625 216.118 210.592 216.151C210.56 216.184 210.515 216.202 210.469 216.202Z" fill="#A3B2B7"/>
<path d="M210.469 220.408H149.153C149.13 220.408 149.107 220.403 149.086 220.395C149.064 220.386 149.045 220.373 149.028 220.357C149.012 220.34 148.999 220.321 148.99 220.3C148.981 220.278 148.977 220.255 148.977 220.232C148.977 220.209 148.981 220.186 148.99 220.165C148.999 220.144 149.012 220.124 149.028 220.108C149.045 220.092 149.064 220.079 149.086 220.07C149.107 220.061 149.13 220.057 149.153 220.057H210.469C210.515 220.057 210.56 220.076 210.592 220.109C210.625 220.142 210.643 220.186 210.643 220.232C210.643 220.279 210.625 220.323 210.592 220.356C210.56 220.389 210.515 220.407 210.469 220.408Z" fill="#A3B2B7"/>
<path d="M210.469 224.613H149.153C149.13 224.613 149.107 224.608 149.086 224.6C149.064 224.591 149.045 224.578 149.028 224.562C149.012 224.545 148.999 224.526 148.99 224.505C148.981 224.483 148.977 224.461 148.977 224.437C148.977 224.414 148.981 224.391 148.99 224.37C148.999 224.349 149.012 224.329 149.028 224.313C149.045 224.297 149.064 224.284 149.086 224.275C149.107 224.266 149.13 224.262 149.153 224.262H210.469C210.515 224.263 210.56 224.281 210.592 224.314C210.625 224.347 210.643 224.391 210.643 224.437C210.643 224.484 210.625 224.528 210.592 224.561C210.56 224.594 210.515 224.612 210.469 224.613Z" fill="#A3B2B7"/>
<path d="M199.712 182.743V205.521H142.654C141.125 205.574 139.601 205.319 138.173 204.77C136.745 204.222 135.442 203.392 134.342 202.329C133.242 201.266 132.367 199.992 131.769 198.584C131.171 197.176 130.863 195.662 130.863 194.132C130.863 192.602 131.171 191.088 131.769 189.679C132.367 188.271 133.242 186.998 134.342 185.935C135.442 184.872 136.745 184.042 138.173 183.493C139.601 182.945 141.125 182.69 142.654 182.743H199.712Z" fill="#EDEEEF"/>
<path d="M201.114 205.345C201.114 205.577 201.021 205.8 200.857 205.964C200.693 206.128 200.47 206.221 200.238 206.221H141.637C140.061 206.221 138.501 205.91 137.045 205.307C135.589 204.704 134.266 203.82 133.152 202.706C132.037 201.591 131.153 200.268 130.55 198.812C129.947 197.355 129.637 195.795 129.637 194.219C129.637 192.642 129.947 191.082 130.55 189.626C131.153 188.169 132.037 186.846 133.152 185.732C134.266 184.617 135.589 183.733 137.045 183.13C138.501 182.527 140.061 182.216 141.637 182.216H200.238C200.47 182.216 200.693 182.309 200.857 182.473C201.021 182.637 201.114 182.86 201.114 183.092C201.114 183.325 201.021 183.548 200.857 183.712C200.693 183.876 200.47 183.968 200.238 183.968H141.637C138.921 183.971 136.316 185.052 134.396 186.974C132.476 188.896 131.398 191.502 131.398 194.219C131.398 196.936 132.476 199.541 134.396 201.463C136.316 203.385 138.921 204.466 141.637 204.469H200.238C200.47 204.469 200.693 204.561 200.857 204.725C201.021 204.89 201.114 205.112 201.114 205.345Z" fill="#1E252B"/>
<path d="M199.711 187.999H138.395C138.372 188 138.349 187.995 138.328 187.986C138.306 187.978 138.287 187.965 138.27 187.948C138.254 187.932 138.241 187.913 138.232 187.891C138.223 187.87 138.219 187.847 138.219 187.824C138.219 187.801 138.223 187.778 138.232 187.757C138.241 187.735 138.254 187.716 138.27 187.7C138.287 187.684 138.306 187.671 138.328 187.662C138.349 187.653 138.372 187.649 138.395 187.649H199.711C199.757 187.649 199.802 187.668 199.834 187.701C199.867 187.733 199.885 187.778 199.885 187.824C199.885 187.87 199.867 187.915 199.834 187.948C199.802 187.98 199.757 187.999 199.711 187.999Z" fill="#A3B2B7"/>
<path d="M199.711 192.204H138.395C138.372 192.205 138.349 192.2 138.328 192.191C138.306 192.183 138.287 192.17 138.27 192.154C138.254 192.137 138.241 192.118 138.232 192.097C138.223 192.075 138.219 192.052 138.219 192.029C138.219 192.006 138.223 191.983 138.232 191.962C138.241 191.941 138.254 191.921 138.27 191.905C138.287 191.889 138.306 191.876 138.328 191.867C138.349 191.858 138.372 191.854 138.395 191.854H199.711C199.757 191.854 199.802 191.873 199.834 191.906C199.867 191.939 199.885 191.983 199.885 192.029C199.885 192.076 199.867 192.12 199.834 192.153C199.802 192.186 199.757 192.204 199.711 192.204Z" fill="#A3B2B7"/>
<path d="M199.711 196.409H138.395C138.372 196.41 138.349 196.405 138.328 196.396C138.306 196.388 138.287 196.375 138.27 196.359C138.254 196.342 138.241 196.323 138.232 196.302C138.223 196.28 138.219 196.257 138.219 196.234C138.219 196.211 138.223 196.188 138.232 196.167C138.241 196.146 138.254 196.126 138.27 196.11C138.287 196.094 138.306 196.081 138.328 196.072C138.349 196.063 138.372 196.059 138.395 196.059H199.711C199.757 196.059 199.802 196.078 199.834 196.111C199.867 196.144 199.885 196.188 199.885 196.234C199.885 196.281 199.867 196.325 199.834 196.358C199.802 196.391 199.757 196.409 199.711 196.409Z" fill="#A3B2B7"/>
<path d="M199.711 200.615H138.395C138.372 200.615 138.349 200.61 138.328 200.602C138.306 200.593 138.287 200.58 138.27 200.564C138.254 200.547 138.241 200.528 138.232 200.507C138.223 200.485 138.219 200.463 138.219 200.439C138.219 200.416 138.223 200.393 138.232 200.372C138.241 200.351 138.254 200.331 138.27 200.315C138.287 200.299 138.306 200.286 138.328 200.277C138.349 200.268 138.372 200.264 138.395 200.264H199.711C199.757 200.264 199.802 200.283 199.834 200.316C199.867 200.349 199.885 200.393 199.885 200.439C199.885 200.486 199.867 200.53 199.834 200.563C199.802 200.596 199.757 200.614 199.711 200.615Z" fill="#A3B2B7"/>
<path d="M266.091 310.483V290.622C266.091 289.744 265.743 288.902 265.122 288.282C264.501 287.661 263.66 287.312 262.782 287.312H187.489C186.612 287.312 185.77 287.661 185.149 288.282C184.528 288.902 184.18 289.744 184.18 290.622V310.483H266.091Z" fill="#A3B2B7"/>
<path d="M266.091 317.93H184.18V343.583H266.091V317.93Z" fill="#A3B2B7"/>
<path d="M184.18 351.03V370.891C184.18 371.769 184.528 372.611 185.149 373.231C185.77 373.852 186.612 374.201 187.489 374.201H262.782C263.66 374.201 264.501 373.852 265.122 373.231C265.743 372.611 266.091 371.769 266.091 370.891V351.03H184.18Z" fill="#A3B2B7"/>
<path d="M224.72 302.207C226.091 302.207 227.203 301.096 227.203 299.725C227.203 298.354 226.091 297.242 224.72 297.242C223.35 297.242 222.238 298.354 222.238 299.725C222.238 301.096 223.35 302.207 224.72 302.207Z" fill="white"/>
<path d="M224.72 335.307C226.091 335.307 227.203 334.196 227.203 332.825C227.203 331.454 226.091 330.342 224.72 330.342C223.35 330.342 222.238 331.454 222.238 332.825C222.238 334.196 223.35 335.307 224.72 335.307Z" fill="white"/>
<path d="M224.853 367.708C226.224 367.708 227.335 366.596 227.335 365.225C227.335 363.854 226.224 362.743 224.853 362.743C223.482 362.743 222.371 363.854 222.371 365.225C222.371 366.596 223.482 367.708 224.853 367.708Z" fill="white"/>
<path d="M256.806 264.667V287.445H199.747C198.219 287.498 196.695 287.243 195.267 286.695C193.839 286.146 192.536 285.316 191.436 284.253C190.335 283.19 189.46 281.917 188.863 280.509C188.265 279.1 187.957 277.586 187.957 276.056C187.957 274.526 188.265 273.012 188.863 271.604C189.46 270.195 190.335 268.922 191.436 267.859C192.536 266.796 193.839 265.966 195.267 265.417C196.695 264.869 198.219 264.614 199.747 264.667H256.806Z" fill="#EDEEEF"/>
<path d="M258.206 287.27C258.206 287.502 258.113 287.725 257.949 287.889C257.785 288.054 257.562 288.146 257.33 288.146H198.729C197.152 288.147 195.591 287.838 194.134 287.235C192.677 286.633 191.352 285.749 190.237 284.634C189.122 283.52 188.237 282.196 187.633 280.739C187.029 279.282 186.719 277.721 186.719 276.144C186.719 274.567 187.029 273.005 187.633 271.549C188.237 270.092 189.122 268.768 190.237 267.653C191.352 266.539 192.677 265.655 194.134 265.052C195.591 264.45 197.152 264.14 198.729 264.142H257.33C257.562 264.142 257.785 264.234 257.949 264.398C258.113 264.562 258.206 264.785 258.206 265.018C258.206 265.25 258.113 265.473 257.949 265.637C257.785 265.801 257.562 265.894 257.33 265.894H198.729C196.013 265.896 193.408 266.977 191.488 268.899C189.568 270.821 188.49 273.427 188.49 276.144C188.49 278.861 189.568 281.467 191.488 283.389C193.408 285.311 196.013 286.392 198.729 286.394H257.33C257.562 286.394 257.785 286.486 257.949 286.651C258.113 286.815 258.206 287.038 258.206 287.27Z" fill="#1E252B"/>
<path d="M256.805 269.923H195.489C195.466 269.923 195.443 269.918 195.421 269.91C195.4 269.901 195.381 269.888 195.364 269.872C195.348 269.856 195.335 269.836 195.326 269.815C195.317 269.793 195.313 269.771 195.312 269.747C195.313 269.724 195.317 269.701 195.326 269.68C195.335 269.659 195.348 269.639 195.364 269.623C195.381 269.607 195.4 269.594 195.421 269.585C195.443 269.577 195.466 269.572 195.489 269.572H256.805C256.851 269.573 256.895 269.591 256.928 269.624C256.961 269.657 256.979 269.701 256.979 269.747C256.979 269.794 256.961 269.838 256.928 269.871C256.895 269.904 256.851 269.922 256.805 269.923Z" fill="#A3B2B7"/>
<path d="M256.805 274.129H195.489C195.466 274.129 195.443 274.125 195.421 274.116C195.4 274.107 195.381 274.094 195.364 274.078C195.348 274.062 195.335 274.042 195.326 274.021C195.317 274 195.313 273.977 195.312 273.954C195.313 273.93 195.317 273.908 195.326 273.886C195.335 273.865 195.348 273.845 195.364 273.829C195.381 273.813 195.4 273.8 195.421 273.791C195.443 273.783 195.466 273.778 195.489 273.778H256.805C256.851 273.779 256.895 273.797 256.928 273.83C256.961 273.863 256.979 273.907 256.979 273.954C256.979 274 256.961 274.044 256.928 274.077C256.895 274.11 256.851 274.128 256.805 274.129Z" fill="#A3B2B7"/>
<path d="M256.805 278.334H195.489C195.466 278.334 195.443 278.33 195.421 278.321C195.4 278.312 195.381 278.299 195.364 278.283C195.348 278.267 195.335 278.247 195.326 278.226C195.317 278.205 195.313 278.182 195.312 278.159C195.313 278.135 195.317 278.113 195.326 278.091C195.335 278.07 195.348 278.051 195.364 278.034C195.381 278.018 195.4 278.005 195.421 277.996C195.443 277.988 195.466 277.983 195.489 277.983H256.805C256.851 277.984 256.895 278.002 256.928 278.035C256.961 278.068 256.979 278.112 256.979 278.159C256.979 278.205 256.961 278.249 256.928 278.282C256.895 278.315 256.851 278.333 256.805 278.334Z" fill="#A3B2B7"/>
<path d="M256.805 282.539H195.489C195.466 282.539 195.443 282.535 195.421 282.526C195.4 282.517 195.381 282.504 195.364 282.488C195.348 282.472 195.335 282.452 195.326 282.431C195.317 282.41 195.313 282.387 195.312 282.364C195.313 282.341 195.317 282.318 195.326 282.296C195.335 282.275 195.348 282.256 195.364 282.239C195.381 282.223 195.4 282.21 195.421 282.201C195.443 282.193 195.466 282.188 195.489 282.188H256.805C256.851 282.189 256.895 282.207 256.928 282.24C256.961 282.273 256.979 282.317 256.979 282.364C256.979 282.41 256.961 282.454 256.928 282.487C256.895 282.52 256.851 282.539 256.805 282.539Z" fill="#A3B2B7"/>
<path d="M358.215 32.9323V3.11207C358.216 2.28698 358.544 1.49595 359.127 0.912524C359.711 0.329096 360.501 0.000915554 361.326 0H386.592C387.417 0.000915554 388.208 0.329096 388.792 0.912524C389.375 1.49595 389.703 2.28698 389.704 3.11207V32.9323C389.703 33.7574 389.375 34.5484 388.792 35.1318C388.208 35.7153 387.417 36.0434 386.592 36.0444H361.326C360.501 36.0434 359.711 35.7153 359.127 35.1318C358.544 34.5484 358.216 33.7574 358.215 32.9323Z" fill="#30BAEF"/>
<path d="M309.125 46.7638V16.9436C309.126 16.1185 309.454 15.3275 310.037 14.744C310.621 14.1606 311.412 13.8325 312.237 13.8315H337.503C338.328 13.8325 339.119 14.1606 339.702 14.744C340.285 15.3275 340.613 16.1185 340.614 16.9436V46.7638C340.613 47.5889 340.285 48.3799 339.702 48.9634C339.119 49.5468 338.328 49.875 337.503 49.8759H312.237C311.412 49.875 310.621 49.5468 310.037 48.9633C309.454 48.3799 309.126 47.5889 309.125 46.7638Z" fill="#A3B2B7"/>
<path d="M348.535 88.9498V59.1296C348.536 58.3045 348.864 57.5135 349.448 56.9301C350.031 56.3467 350.822 56.0185 351.647 56.0176H376.913C377.738 56.0185 378.529 56.3467 379.112 56.9301C379.695 57.5135 380.023 58.3045 380.024 59.1296V88.9498C380.023 89.7749 379.695 90.566 379.112 91.1494C378.529 91.7328 377.738 92.061 376.913 92.0619H351.647C350.822 92.061 350.031 91.7328 349.448 91.1494C348.864 90.566 348.536 89.7749 348.535 88.9498Z" fill="#121212"/>
<path d="M391.243 223.593H365.247C365 223.593 364.757 223.65 364.535 223.759L357.974 227.044C357.758 227.136 357.574 227.289 357.445 227.485C357.315 227.68 357.246 227.91 357.246 228.144C357.246 228.379 357.315 228.609 357.445 228.804C357.574 229 357.758 229.153 357.974 229.245L364.535 232.53C364.757 232.639 365 232.696 365.247 232.696H391.243C391.602 232.717 391.954 232.595 392.223 232.358C392.493 232.121 392.658 231.788 392.683 231.43V224.859C392.658 224.501 392.493 224.168 392.223 223.931C391.954 223.694 391.602 223.572 391.243 223.593Z" fill="#1E252B"/>
<path d="M392.678 224.858V231.429C392.652 231.787 392.487 232.12 392.218 232.357C391.948 232.594 391.596 232.716 391.238 232.695H386.059V223.592H391.238C391.596 223.571 391.948 223.693 392.218 223.93C392.487 224.167 392.652 224.5 392.678 224.858Z" fill="#30BAEF"/>
<path d="M391.046 174.438C392.224 173.929 393.496 173.676 394.778 173.693C396.06 173.711 397.324 173.999 398.488 174.539C399.651 175.08 400.687 175.859 401.528 176.828C402.368 177.797 402.995 178.932 403.367 180.16C403.482 180.549 403.571 180.946 403.632 181.347L439.986 199.377L448.399 193.801L458.867 205.854L446.021 216.289C444.476 217.534 442.571 218.248 440.588 218.324C438.606 218.401 436.651 217.836 435.015 216.713L398.131 191.202C397.856 191.319 397.576 191.421 397.291 191.509C396.063 191.88 394.771 191.988 393.499 191.825C392.227 191.662 391.003 191.232 389.909 190.563C388.814 189.894 387.874 189.002 387.148 187.944C386.423 186.886 385.929 185.687 385.699 184.425C385.631 184.058 385.586 183.688 385.565 183.316C385.462 181.453 385.933 179.604 386.913 178.017C387.893 176.429 389.335 175.18 391.046 174.438Z" fill="#FE8C62"/>
<path d="M466.765 285.449H427.042C427.042 286.591 386.102 287.518 386.102 287.518C385.46 288.001 384.874 288.557 384.357 289.173C382.802 291.027 381.952 293.372 381.957 295.793V297.448C381.958 300.191 383.048 302.821 384.987 304.761C386.927 306.701 389.557 307.791 392.299 307.792H466.765C469.507 307.789 472.136 306.699 474.075 304.759C476.014 302.82 477.105 300.19 477.107 297.448V295.793C477.103 293.05 476.012 290.422 474.074 288.483C472.135 286.544 469.506 285.453 466.765 285.449Z" fill="#1E252B"/>
<path d="M423.552 374.266H434.309V304.755H423.552V374.266Z" fill="#1E252B"/>
<path d="M392.945 373.888C392.945 375.05 409.244 374.338 429.351 374.338C449.457 374.338 465.756 375.05 465.756 373.888C465.756 372.726 449.457 363.508 429.351 363.508C409.244 363.508 392.945 372.726 392.945 373.888Z" fill="#1E252B"/>
<path d="M402.649 364.427L392.506 364.426L387.68 338.114L402.651 338.115L402.649 364.427Z" fill="#FE8C62"/>
<path d="M405.238 374.262L372.531 374.26V373.847C372.531 372.175 372.861 370.519 373.5 368.974C374.14 367.429 375.078 366.026 376.26 364.843C377.442 363.661 378.846 362.723 380.39 362.083C381.935 361.444 383.59 361.114 385.262 361.114H385.263L405.239 361.115L405.238 374.262Z" fill="#121212"/>
<path d="M387.479 352.05L367.257 306.696C365.569 302.873 365.382 298.555 366.734 294.6C368.086 290.646 370.878 287.347 374.553 285.359L418.416 261.834L438.432 260.132L456.895 258.453L457.028 258.679C457.198 258.966 461.168 265.824 458.485 273.344C456.449 279.047 451.155 283.503 442.749 286.586C423.127 293.781 400.461 299.931 391.627 302.241C391.237 302.34 390.872 302.522 390.556 302.773C390.241 303.024 389.982 303.339 389.798 303.697C389.612 304.051 389.502 304.439 389.474 304.838C389.446 305.236 389.501 305.637 389.635 306.013L408.422 348.228C408.619 348.764 408.689 349.337 408.629 349.904C408.568 350.471 408.379 351.017 408.074 351.499C407.77 351.981 407.358 352.387 406.872 352.685C406.386 352.983 405.838 353.165 405.271 353.218L391.233 354.24C391.113 354.251 390.995 354.257 390.877 354.257C390.158 354.257 389.454 354.048 388.851 353.657C388.248 353.265 387.772 352.707 387.479 352.05Z" fill="#121212"/>
<path d="M407.614 364.427L397.471 364.426L392.645 338.114L407.615 338.115L407.614 364.427Z" fill="#FE8C62"/>
<path d="M410.199 374.262L377.492 374.26V373.847C377.492 372.175 377.821 370.519 378.461 368.974C379.101 367.429 380.039 366.026 381.221 364.843C382.403 363.661 383.806 362.723 385.351 362.083C386.896 361.444 388.551 361.114 390.223 361.114H390.224L410.2 361.115L410.199 374.262Z" fill="#121212"/>
<path d="M393.276 354.533L373.054 309.178C371.366 305.355 371.179 301.037 372.531 297.083C373.883 293.129 376.675 289.829 380.35 287.841L424.213 264.317L444.229 262.614L462.692 260.936L462.825 261.161C462.995 261.449 466.965 268.306 464.281 275.826C462.246 281.53 456.952 285.985 448.545 289.068C428.924 296.264 406.258 302.413 397.424 304.723C397.033 304.823 396.669 305.004 396.353 305.255C396.038 305.506 395.779 305.821 395.594 306.179C395.409 306.533 395.299 306.922 395.271 307.32C395.243 307.719 395.298 308.119 395.432 308.495L414.219 350.711C414.415 351.246 414.486 351.82 414.426 352.387C414.365 352.954 414.176 353.499 413.871 353.981C413.567 354.463 413.155 354.869 412.669 355.167C412.183 355.465 411.635 355.648 411.067 355.7L397.029 356.723C396.91 356.734 396.792 356.74 396.673 356.74C395.955 356.739 395.251 356.531 394.648 356.139C394.045 355.747 393.569 355.189 393.276 354.533Z" fill="#121212"/>
<path d="M383.197 215.981C374.699 204.676 367.982 192.137 363.277 178.799C363.005 178.001 363.024 177.132 363.332 176.347C363.64 175.563 364.216 174.912 364.958 174.513L394.037 158.929C394.507 158.675 395.03 158.532 395.564 158.51C396.098 158.489 396.63 158.589 397.12 158.804C397.618 159.021 398.061 159.348 398.414 159.762C398.767 160.175 399.02 160.664 399.156 161.191C402.541 174.043 408.903 185.919 417.727 195.856C418.091 196.261 418.357 196.743 418.506 197.266C418.655 197.788 418.682 198.338 418.586 198.874C418.494 199.4 418.283 199.899 417.969 200.332C417.655 200.765 417.247 201.12 416.775 201.371L387.696 216.955C386.952 217.351 386.092 217.471 385.268 217.293C384.444 217.114 383.71 216.65 383.197 215.981Z" fill="#A3B2B7"/>
<path d="M385.177 214.489C385.333 214.685 385.553 214.819 385.798 214.87C386.043 214.92 386.298 214.884 386.519 214.767L415.598 199.183C415.739 199.109 415.861 199.004 415.955 198.875C416.049 198.746 416.111 198.597 416.138 198.44C416.168 198.275 416.16 198.104 416.113 197.942C416.066 197.78 415.983 197.631 415.869 197.507C406.784 187.277 400.235 175.052 396.75 161.82C396.71 161.657 396.632 161.505 396.524 161.376C396.415 161.248 396.278 161.146 396.123 161.08C395.978 161.015 395.819 160.984 395.659 160.991C395.5 160.997 395.344 161.041 395.204 161.118L366.126 176.701C365.906 176.82 365.734 177.012 365.64 177.245C365.547 177.477 365.537 177.735 365.613 177.973C370.234 191.072 376.831 203.387 385.177 214.489Z" fill="white"/>
<path d="M479.798 211.823L457.024 220.479L451.464 205.032C450.726 202.98 450.736 200.734 451.494 198.69C452.251 196.646 453.706 194.935 455.603 193.86C457.521 192.773 459.765 192.408 461.929 192.83C464.093 193.253 466.035 194.436 467.403 196.165L479.798 211.823Z" fill="#30BAEF"/>
<path d="M421.87 273.027C421.391 272.688 420.989 272.25 420.692 271.744C420.394 271.238 420.208 270.674 420.146 270.09C417.229 242.856 419.261 221.544 426.356 204.935C427.606 202.071 429.489 199.527 431.863 197.494C434.237 195.462 437.041 193.994 440.064 193.201L458.473 192.272L458.568 192.318C462.722 194.353 466.11 197.673 468.229 201.785C470.348 205.897 471.086 210.583 470.333 215.148C464.412 230.758 459.454 247.01 463.235 260.12C463.394 260.669 463.44 261.243 463.371 261.809C463.302 262.376 463.12 262.923 462.835 263.417C462.558 263.894 462.187 264.31 461.743 264.639C461.3 264.968 460.794 265.202 460.257 265.328L425.193 273.67C424.625 273.805 424.035 273.817 423.462 273.707C422.889 273.596 422.346 273.364 421.87 273.027Z" fill="#30BAEF"/>
<path d="M452.333 185.395C463.557 185.395 472.655 176.295 472.655 165.07C472.655 153.845 463.557 144.746 452.333 144.746C441.11 144.746 432.012 153.845 432.012 165.07C432.012 176.295 441.11 185.395 452.333 185.395Z" fill="#FE8C62"/>
<path d="M395.94 181.169L380.102 188.161C379.5 188.426 378.817 188.441 378.203 188.203C377.589 187.966 377.095 187.494 376.829 186.892L376.437 186.005C376.172 185.402 376.157 184.719 376.394 184.106C376.632 183.492 377.104 182.998 377.705 182.731L393.543 175.739C394.145 175.474 394.828 175.458 395.442 175.696C396.056 175.934 396.55 176.406 396.816 177.007L397.208 177.895C397.473 178.497 397.488 179.18 397.251 179.794C397.013 180.408 396.541 180.902 395.94 181.169Z" fill="#A3B2B7"/>
<path d="M401.736 191.926L385.899 198.918C385.297 199.183 384.614 199.199 384 198.961C383.386 198.723 382.892 198.251 382.626 197.65L382.234 196.762C381.969 196.16 381.954 195.477 382.191 194.863C382.429 194.249 382.901 193.755 383.502 193.488L399.34 186.496C399.942 186.231 400.625 186.216 401.239 186.454C401.852 186.691 402.347 187.163 402.613 187.765L403.005 188.652C403.27 189.255 403.285 189.938 403.047 190.551C402.81 191.165 402.338 191.66 401.736 191.926Z" fill="#A3B2B7"/>
<path d="M413.948 233.945L378.639 206.086C378.358 206.185 378.072 206.269 377.782 206.339C376.536 206.63 375.242 206.656 373.985 206.415C372.728 206.174 371.536 205.671 370.486 204.939C369.429 204.207 368.541 203.257 367.881 202.153C367.221 201.049 366.804 199.817 366.658 198.54C366.422 196.497 366.882 194.434 367.965 192.686C369.047 190.938 370.689 189.607 372.623 188.909C373.83 188.476 375.115 188.303 376.394 188.401C377.673 188.499 378.916 188.866 380.043 189.479C381.17 190.091 382.155 190.934 382.933 191.954C383.711 192.973 384.265 194.146 384.559 195.394C384.65 195.79 384.713 196.192 384.749 196.596L419.897 216.876L428.644 211.84L438.334 224.527L424.753 234.209C423.163 235.333 421.253 235.914 419.307 235.867C417.36 235.819 415.481 235.145 413.948 233.945Z" fill="#FE8C62"/>
<path d="M442.642 228.479L422.496 214.777L431.964 201.365C433.221 199.585 435.067 198.306 437.176 197.754C439.285 197.203 441.521 197.415 443.488 198.353C445.479 199.302 447.064 200.932 447.959 202.947C448.853 204.963 448.997 207.232 448.365 209.345L442.642 228.479Z" fill="#30BAEF"/>
<path d="M444.88 162.043C439.657 165.618 432.799 169.293 427.464 165.486C423.961 162.986 422.858 158.357 424.278 154.294C426.832 146.988 433.851 143.772 440.562 141.306C449.286 138.101 458.785 135.552 467.792 137.847C476.798 140.142 484.758 148.864 483.132 158.016C481.825 165.376 474.883 171.5 475.869 178.911C476.86 186.368 485.246 190.294 492.649 191.627C500.053 192.96 508.337 193.388 513.657 198.706C520.445 205.491 518.75 217.618 512.363 224.781C505.977 231.944 496.339 235.191 487.001 237.399C474.627 240.323 461.245 241.86 449.493 237.007C437.742 232.153 428.597 219.087 432.001 206.835C433.439 201.66 436.826 197.287 440.1 193.029C443.374 188.771 446.689 184.318 447.937 179.094C448.978 174.741 448.208 169.686 445.321 166.421C444.796 165.849 444.466 165.126 444.378 164.355C444.289 163.584 444.447 162.805 444.83 162.129L444.88 162.043Z" fill="#121212"/>
<path d="M89.4499 263.421C84.2134 265.262 78.5911 265.723 73.1247 264.76C67.6584 263.797 62.5321 261.442 58.2398 257.922C47.3083 248.746 43.8809 233.627 41.0922 219.629C38.3427 205.827 35.5932 192.025 32.8438 178.223L50.1128 190.116C62.5316 198.668 75.2302 207.495 83.829 219.883C92.4278 232.27 96.1811 249.181 89.2723 262.585" fill="#26ABDE"/>
<path d="M87.9774 313.55C89.7252 300.817 91.5225 287.92 90.2965 275.05C89.2076 263.62 85.7211 252.456 78.6229 243.303C74.8552 238.454 70.2707 234.298 65.0754 231.025C63.7206 230.169 62.4737 232.317 63.8226 233.168C72.812 238.851 79.7649 247.241 83.679 257.13C88.002 268.128 88.6963 280.116 87.9513 291.798C87.5008 298.863 86.546 305.881 85.5838 312.89C85.508 313.207 85.5553 313.541 85.7162 313.825C85.8771 314.108 86.1396 314.32 86.4507 314.417C86.768 314.503 87.1063 314.46 87.3921 314.297C87.6779 314.135 87.8882 313.867 87.9774 313.55H87.9774Z" fill="#EDEEEF"/>
<path d="M71.1417 291.018C68.8959 294.432 65.8088 297.21 62.178 299.084C58.5472 300.959 54.4949 301.866 50.4116 301.719C39.9177 301.221 31.1691 293.896 23.2938 286.941L0 266.372L15.4166 265.634C26.5033 265.103 37.8761 264.608 48.4358 268.027C58.9955 271.447 68.7342 279.676 70.6651 290.608" fill="#26ABDE"/>
<path d="M92.9162 320.87C84.5035 305.982 74.7455 289.436 57.3097 284.147C52.4616 282.682 47.3781 282.157 42.333 282.601C40.7429 282.738 41.14 285.189 42.7272 285.052C51.1839 284.35 59.6244 286.583 66.6276 291.376C73.3666 295.964 78.6136 302.342 83.0547 309.106C85.775 313.249 88.2117 317.568 90.6488 321.881C91.4276 323.259 93.7041 322.264 92.9162 320.87Z" fill="#EDEEEF"/>
<path d="M106.396 336.541C106.112 333.256 104.933 330.112 102.986 327.451C101.04 324.79 98.4006 322.714 95.3561 321.45V312.843H80.9223V321.721C78.0276 323.048 75.5364 325.118 73.7027 327.722C71.8689 330.325 70.7582 333.368 70.4838 336.541L67.0898 376H109.79L106.396 336.541Z" fill="#EDEEEF"/>
</svg>
