<svg width="396" height="285" viewBox="0 0 396 285" fill="none" xmlns="http://www.w3.org/2000/svg">
<path d="M372.34 175.684H116.536C115.45 175.684 114.408 176.115 113.64 176.883C112.872 177.651 112.441 178.693 112.441 179.78C112.441 180.866 112.872 181.908 113.64 182.676C114.408 183.444 115.45 183.876 116.536 183.876H123.782V280.865C123.782 281.951 124.213 282.993 124.981 283.761C125.75 284.529 126.791 284.961 127.877 284.961C128.963 284.961 130.005 284.529 130.773 283.761C131.541 282.993 131.973 281.951 131.973 280.865L132.035 183.876H356.273V280.865C356.273 281.951 356.705 282.993 357.473 283.761C358.241 284.529 359.283 284.961 360.369 284.961C361.455 284.961 362.497 284.529 363.265 283.761C364.033 282.993 364.464 281.951 364.464 280.865V186.035L365.656 183.876H372.34C373.426 183.876 374.468 183.444 375.236 182.676C376.004 181.908 376.435 180.866 376.435 179.78C376.435 178.693 376.004 177.651 375.236 176.883C374.468 176.115 373.426 175.684 372.34 175.684Z" fill="#A3B2B7"/>
<path d="M258.356 177.828H180.87C179.37 177.826 177.931 177.229 176.87 176.168C175.809 175.107 175.213 173.669 175.211 172.168V129.501C175.213 128 175.809 126.562 176.87 125.5C177.931 124.439 179.37 123.843 180.87 123.841H258.356C259.856 123.843 261.294 124.439 262.355 125.5C263.416 126.562 264.013 128 264.015 129.501V172.168C264.013 173.669 263.416 175.107 262.355 176.168C261.294 177.229 259.856 177.826 258.356 177.828Z" fill="#1E252B"/>
<path d="M258.355 128.196H180.871C180.525 128.197 180.194 128.335 179.949 128.579C179.705 128.824 179.567 129.155 179.566 129.501V172.169C179.567 172.514 179.705 172.846 179.949 173.09C180.194 173.335 180.525 173.472 180.871 173.473H258.355C258.701 173.472 259.032 173.335 259.277 173.09C259.521 172.846 259.659 172.514 259.659 172.169V129.501C259.659 129.155 259.521 128.824 259.277 128.579C259.032 128.335 258.701 128.197 258.355 128.196Z" fill="white"/>
<path d="M226.222 158.405C226.222 158.405 216.946 156.267 211.844 160.187C206.742 164.106 218.337 173.013 218.337 173.013L226.222 158.405Z" fill="#121212"/>
<path d="M220.067 154.365C224.899 154.365 228.817 150.447 228.817 145.614C228.817 140.781 224.899 136.863 220.067 136.863C215.235 136.863 211.317 140.781 211.317 145.614C211.317 150.447 215.235 154.365 220.067 154.365Z" fill="#FE8C62"/>
<path d="M213.301 133.331C213.885 132.34 214.731 131.53 215.745 130.99C216.76 130.45 217.904 130.201 219.051 130.271C220.252 130.421 221.423 130.749 222.527 131.244L228.246 133.475C229.726 134.053 231.348 134.76 231.99 136.213C232.586 137.562 232.141 139.12 231.691 140.524L229.551 147.2C229.314 145.689 228.907 144.21 228.338 142.79C227.76 141.361 226.715 140.17 225.374 139.41C223.888 138.648 222.137 138.663 220.469 138.744C218.107 138.857 215.539 139.158 213.86 140.824C212.97 141.771 212.366 142.951 212.119 144.227C211.876 145.496 211.753 146.786 211.753 148.078C210.785 146.413 209.969 144.663 209.315 142.851C208.778 141.501 208.472 140.071 208.41 138.619C208.354 137.156 208.839 135.722 209.773 134.594C210.248 134.043 210.867 133.636 211.56 133.417C212.254 133.199 212.995 133.179 213.699 133.359L213.301 133.331Z" fill="#121212"/>
<path d="M240.959 165.993C240.877 165.698 240.71 165.433 240.478 165.232C240.246 165.031 239.959 164.904 239.655 164.865C239.635 164.851 239.614 164.838 239.592 164.827L226.53 157.506C226.157 157.297 225.718 157.24 225.304 157.346C224.89 157.453 224.533 157.715 224.307 158.078L220.735 163.863L215.354 158.482L215.268 158.396C214.992 158.12 214.628 157.95 214.239 157.916C213.85 157.882 213.461 157.986 213.141 158.21L202.406 165.728C202.387 165.728 202.368 165.735 202.35 165.735C201.836 165.82 201.367 166.079 201.019 166.467C200.672 166.856 200.468 167.351 200.44 167.871L200.163 173.473H243.032L240.959 165.993Z" fill="#30BAEF"/>
<path d="M264.885 172.603H256.614C256.614 172.372 256.523 172.151 256.359 171.987C256.196 171.824 255.975 171.732 255.744 171.732H253.132C252.901 171.732 252.679 171.824 252.516 171.987C252.353 172.151 252.261 172.372 252.261 172.603H249.649C249.649 172.372 249.558 172.151 249.394 171.987C249.231 171.824 249.01 171.732 248.779 171.732H246.167C245.936 171.732 245.714 171.824 245.551 171.987C245.388 172.151 245.296 172.372 245.296 172.603H242.684C242.684 172.372 242.593 172.151 242.429 171.987C242.266 171.824 242.045 171.732 241.814 171.732H239.202C238.971 171.732 238.749 171.824 238.586 171.987C238.423 172.151 238.331 172.372 238.331 172.603H235.719C235.719 172.372 235.628 172.151 235.464 171.987C235.301 171.824 235.08 171.732 234.849 171.732H232.237C232.006 171.732 231.784 171.824 231.621 171.987C231.458 172.151 231.366 172.372 231.366 172.603H228.754C228.754 172.372 228.663 172.151 228.499 171.987C228.336 171.824 228.115 171.732 227.884 171.732H225.272C225.041 171.732 224.819 171.824 224.656 171.987C224.493 172.151 224.401 172.372 224.401 172.603H221.789C221.789 172.372 221.698 172.151 221.534 171.987C221.371 171.824 221.15 171.732 220.919 171.732H218.307C218.076 171.732 217.854 171.824 217.691 171.987C217.528 172.151 217.436 172.372 217.436 172.603H214.824C214.824 172.372 214.733 172.151 214.569 171.987C214.406 171.824 214.185 171.732 213.954 171.732H211.342C211.111 171.732 210.889 171.824 210.726 171.987C210.563 172.151 210.471 172.372 210.471 172.603H207.859C207.859 172.372 207.768 172.151 207.604 171.987C207.441 171.824 207.22 171.732 206.989 171.732H204.377C204.146 171.732 203.924 171.824 203.761 171.987C203.598 172.151 203.506 172.372 203.506 172.603H200.894C200.894 172.372 200.803 172.151 200.639 171.987C200.476 171.824 200.255 171.732 200.024 171.732H197.412C197.181 171.732 196.959 171.824 196.796 171.987C196.633 172.151 196.541 172.372 196.541 172.603H193.929C193.929 172.372 193.838 172.151 193.674 171.987C193.511 171.824 193.29 171.732 193.059 171.732H190.447C190.216 171.732 189.994 171.824 189.831 171.987C189.668 172.151 189.576 172.372 189.576 172.603H186.964C186.964 172.372 186.873 172.151 186.709 171.987C186.546 171.824 186.325 171.732 186.094 171.732H183.482C183.251 171.732 183.029 171.824 182.866 171.987C182.703 172.151 182.611 172.372 182.611 172.603H174.34C173.648 172.604 172.985 172.88 172.496 173.37C172.007 173.86 171.732 174.523 171.732 175.215C171.732 175.908 172.007 176.571 172.496 177.061C172.985 177.551 173.648 177.827 174.34 177.828H264.885C265.578 177.828 266.242 177.553 266.732 177.063C267.222 176.573 267.497 175.908 267.497 175.215C267.497 174.523 267.222 173.858 266.732 173.368C266.242 172.878 265.578 172.603 264.885 172.603Z" fill="#1E252B"/>
<path d="M160.876 157.433V174.778H117.426C116.262 174.819 115.102 174.625 114.014 174.207C112.927 173.789 111.935 173.157 111.097 172.348C110.259 171.538 109.593 170.569 109.137 169.496C108.682 168.424 108.448 167.271 108.448 166.106C108.448 164.941 108.682 163.788 109.137 162.715C109.593 161.643 110.259 160.673 111.097 159.864C111.935 159.054 112.927 158.422 114.014 158.004C115.102 157.587 116.262 157.392 117.426 157.433H160.876Z" fill="#EDEEEF"/>
<path d="M161.944 174.645C161.944 174.821 161.874 174.991 161.748 175.116C161.623 175.241 161.454 175.312 161.277 175.312H116.652C114.229 175.312 111.904 174.349 110.191 172.635C108.477 170.921 107.514 168.596 107.514 166.172C107.514 163.748 108.477 161.423 110.191 159.709C111.904 157.995 114.229 157.032 116.652 157.032H161.277C161.454 157.032 161.623 157.103 161.748 157.228C161.874 157.353 161.944 157.522 161.944 157.699C161.944 157.876 161.874 158.046 161.748 158.171C161.623 158.296 161.454 158.366 161.277 158.366H116.652C114.584 158.368 112.601 159.192 111.139 160.655C109.677 162.119 108.855 164.103 108.855 166.172C108.855 168.241 109.677 170.225 111.139 171.689C112.601 173.152 114.584 173.976 116.652 173.977H161.277C161.454 173.977 161.623 174.048 161.748 174.173C161.873 174.298 161.944 174.468 161.944 174.645Z" fill="#30BAEF"/>
<path d="M160.876 161.436H114.184C114.167 161.436 114.149 161.433 114.133 161.426C114.117 161.419 114.102 161.409 114.089 161.397C114.077 161.385 114.067 161.37 114.06 161.354C114.053 161.337 114.05 161.32 114.05 161.302C114.05 161.285 114.053 161.267 114.06 161.251C114.067 161.235 114.077 161.22 114.089 161.208C114.102 161.195 114.117 161.186 114.133 161.179C114.149 161.172 114.167 161.169 114.184 161.169H160.876C160.911 161.169 160.945 161.183 160.97 161.208C160.995 161.233 161.009 161.267 161.009 161.302C161.009 161.338 160.995 161.371 160.97 161.396C160.945 161.421 160.911 161.436 160.876 161.436Z" fill="#A3B2B7"/>
<path d="M160.876 164.638H114.184C114.167 164.638 114.149 164.635 114.133 164.628C114.117 164.621 114.102 164.612 114.089 164.599C114.077 164.587 114.067 164.572 114.06 164.556C114.053 164.54 114.05 164.522 114.05 164.505C114.05 164.487 114.053 164.469 114.06 164.453C114.067 164.437 114.077 164.422 114.089 164.41C114.102 164.397 114.117 164.388 114.133 164.381C114.149 164.374 114.167 164.371 114.184 164.371H160.876C160.911 164.371 160.945 164.385 160.97 164.41C160.995 164.435 161.009 164.469 161.009 164.505C161.009 164.54 160.995 164.574 160.97 164.599C160.945 164.624 160.911 164.638 160.876 164.638Z" fill="#A3B2B7"/>
<path d="M160.876 167.84H114.184C114.167 167.84 114.149 167.837 114.133 167.83C114.117 167.824 114.102 167.814 114.089 167.801C114.077 167.789 114.067 167.774 114.06 167.758C114.053 167.742 114.05 167.724 114.05 167.707C114.05 167.689 114.053 167.672 114.06 167.655C114.067 167.639 114.077 167.624 114.089 167.612C114.102 167.6 114.117 167.59 114.133 167.583C114.149 167.576 114.167 167.573 114.184 167.573H160.876C160.911 167.573 160.945 167.588 160.97 167.613C160.995 167.638 161.009 167.671 161.009 167.707C161.009 167.742 160.995 167.776 160.97 167.801C160.945 167.826 160.911 167.84 160.876 167.84Z" fill="#A3B2B7"/>
<path d="M160.876 171.042H114.184C114.167 171.042 114.149 171.039 114.133 171.032C114.117 171.026 114.102 171.016 114.089 171.004C114.077 170.991 114.067 170.976 114.06 170.96C114.053 170.944 114.05 170.926 114.05 170.909C114.05 170.891 114.053 170.874 114.06 170.858C114.067 170.841 114.077 170.827 114.089 170.814C114.102 170.802 114.117 170.792 114.133 170.785C114.149 170.779 114.167 170.775 114.184 170.775H160.876C160.911 170.776 160.945 170.79 160.97 170.815C160.995 170.84 161.009 170.874 161.009 170.909C161.009 170.944 160.995 170.978 160.97 171.003C160.945 171.028 160.911 171.042 160.876 171.042Z" fill="#A3B2B7"/>
<path d="M152.685 139.159V156.504H109.235C108.071 156.545 106.911 156.35 105.823 155.933C104.736 155.515 103.744 154.883 102.906 154.073C102.068 153.264 101.402 152.294 100.946 151.222C100.491 150.149 100.257 148.996 100.257 147.831C100.257 146.666 100.491 145.513 100.946 144.441C101.402 143.368 102.068 142.399 102.906 141.589C103.744 140.78 104.736 140.148 105.823 139.73C106.911 139.312 108.071 139.118 109.235 139.159H152.685Z" fill="#EDEEEF"/>
<path d="M153.753 156.37C153.753 156.547 153.683 156.717 153.558 156.842C153.432 156.967 153.263 157.037 153.086 157.037H108.462C107.261 157.037 106.073 156.801 104.964 156.342C103.856 155.882 102.848 155.209 102 154.36C101.151 153.512 100.478 152.504 100.019 151.395C99.5596 150.286 99.3232 149.098 99.3232 147.898C99.3232 146.697 99.5596 145.509 100.019 144.4C100.478 143.291 101.151 142.283 102 141.435C102.848 140.586 103.856 139.913 104.964 139.454C106.073 138.994 107.261 138.758 108.462 138.758H153.086C153.263 138.758 153.432 138.828 153.558 138.953C153.683 139.078 153.753 139.248 153.753 139.425C153.753 139.602 153.683 139.772 153.558 139.897C153.432 140.022 153.263 140.092 153.086 140.092H108.462C106.393 140.094 104.41 140.917 102.948 142.381C101.486 143.844 100.664 145.829 100.664 147.898C100.664 149.966 101.486 151.951 102.948 153.414C104.41 154.878 106.393 155.701 108.462 155.703H153.086C153.263 155.703 153.432 155.773 153.557 155.899C153.683 156.024 153.753 156.193 153.753 156.37Z" fill="#1E252B"/>
<path d="M152.686 143.161H105.994C105.976 143.161 105.959 143.158 105.942 143.151C105.926 143.145 105.911 143.135 105.899 143.123C105.886 143.11 105.876 143.095 105.87 143.079C105.863 143.063 105.859 143.046 105.859 143.028C105.859 143.01 105.863 142.993 105.87 142.977C105.876 142.96 105.886 142.946 105.899 142.933C105.911 142.921 105.926 142.911 105.942 142.904C105.959 142.898 105.976 142.894 105.994 142.895H152.686C152.721 142.895 152.755 142.909 152.78 142.934C152.804 142.959 152.818 142.993 152.818 143.028C152.818 143.063 152.804 143.097 152.78 143.122C152.755 143.147 152.721 143.161 152.686 143.161Z" fill="#A3B2B7"/>
<path d="M152.686 146.364H105.994C105.976 146.364 105.959 146.36 105.942 146.354C105.926 146.347 105.911 146.337 105.899 146.325C105.886 146.312 105.876 146.298 105.87 146.281C105.863 146.265 105.859 146.248 105.859 146.23C105.859 146.213 105.863 146.195 105.87 146.179C105.876 146.163 105.886 146.148 105.899 146.135C105.911 146.123 105.926 146.113 105.942 146.107C105.959 146.1 105.976 146.097 105.994 146.097H152.686C152.721 146.097 152.755 146.111 152.78 146.136C152.804 146.161 152.818 146.195 152.818 146.23C152.818 146.265 152.804 146.299 152.78 146.324C152.755 146.349 152.721 146.363 152.686 146.364Z" fill="#A3B2B7"/>
<path d="M152.686 149.566H105.994C105.976 149.566 105.959 149.562 105.942 149.556C105.926 149.549 105.911 149.539 105.899 149.527C105.886 149.515 105.876 149.5 105.87 149.484C105.863 149.467 105.859 149.45 105.859 149.432C105.859 149.415 105.863 149.397 105.87 149.381C105.876 149.365 105.886 149.35 105.899 149.338C105.911 149.325 105.926 149.315 105.942 149.309C105.959 149.302 105.976 149.299 105.994 149.299H152.686C152.721 149.299 152.755 149.313 152.78 149.338C152.804 149.363 152.818 149.397 152.818 149.432C152.818 149.467 152.804 149.501 152.78 149.526C152.755 149.551 152.721 149.565 152.686 149.566Z" fill="#A3B2B7"/>
<path d="M152.686 152.768H105.994C105.976 152.768 105.959 152.765 105.942 152.758C105.926 152.751 105.911 152.741 105.899 152.729C105.886 152.717 105.876 152.702 105.87 152.686C105.863 152.669 105.859 152.652 105.859 152.634C105.859 152.617 105.863 152.599 105.87 152.583C105.876 152.567 105.886 152.552 105.899 152.54C105.911 152.527 105.926 152.518 105.942 152.511C105.959 152.504 105.976 152.501 105.994 152.501H152.686C152.721 152.501 152.755 152.515 152.78 152.54C152.804 152.565 152.818 152.599 152.818 152.634C152.818 152.67 152.804 152.703 152.78 152.728C152.755 152.753 152.721 152.768 152.686 152.768Z" fill="#A3B2B7"/>
<path d="M203.231 236.432V221.309C203.231 220.64 202.966 219.999 202.493 219.526C202.02 219.054 201.379 218.788 200.711 218.788H143.376C142.707 218.788 142.066 219.054 141.594 219.526C141.121 219.999 140.855 220.64 140.855 221.309V236.432H203.231Z" fill="#A3B2B7"/>
<path d="M203.231 242.104H140.855V261.638H203.231V242.104Z" fill="#A3B2B7"/>
<path d="M140.855 267.31V282.433C140.855 283.102 141.121 283.743 141.594 284.216C142.066 284.688 142.707 284.954 143.376 284.954H200.711C201.379 284.954 202.02 284.688 202.493 284.216C202.966 283.743 203.231 283.102 203.231 282.433V267.31H140.855Z" fill="#A3B2B7"/>
<path d="M171.729 230.131C172.772 230.131 173.619 229.284 173.619 228.24C173.619 227.196 172.772 226.35 171.729 226.35C170.685 226.35 169.838 227.196 169.838 228.24C169.838 229.284 170.685 230.131 171.729 230.131Z" fill="white"/>
<path d="M171.729 255.337C172.772 255.337 173.619 254.49 173.619 253.446C173.619 252.402 172.772 251.556 171.729 251.556C170.685 251.556 169.838 252.402 169.838 253.446C169.838 254.49 170.685 255.337 171.729 255.337Z" fill="white"/>
<path d="M171.83 280.009C172.874 280.009 173.72 279.163 173.72 278.119C173.72 277.075 172.874 276.229 171.83 276.229C170.786 276.229 169.939 277.075 169.939 278.119C169.939 279.163 170.786 280.009 171.83 280.009Z" fill="white"/>
<path d="M196.16 201.544V218.89H152.709C151.545 218.93 150.385 218.736 149.297 218.318C148.21 217.901 147.218 217.268 146.38 216.459C145.542 215.65 144.876 214.68 144.421 213.608C143.966 212.535 143.731 211.382 143.731 210.217C143.731 209.052 143.966 207.899 144.421 206.827C144.876 205.754 145.542 204.784 146.38 203.975C147.218 203.166 148.21 202.533 149.297 202.116C150.385 201.698 151.545 201.504 152.709 201.544H196.16Z" fill="#EDEEEF"/>
<path d="M197.227 218.756C197.227 218.933 197.156 219.102 197.031 219.228C196.906 219.353 196.737 219.423 196.56 219.423H151.935C150.735 219.424 149.546 219.188 148.436 218.729C147.326 218.271 146.318 217.598 145.469 216.749C144.619 215.9 143.946 214.892 143.486 213.783C143.026 212.673 142.79 211.484 142.79 210.283C142.79 209.082 143.026 207.893 143.486 206.784C143.946 205.675 144.619 204.667 145.469 203.818C146.318 202.969 147.326 202.296 148.436 201.837C149.546 201.378 150.735 201.143 151.935 201.144H196.56C196.737 201.144 196.906 201.214 197.031 201.339C197.157 201.464 197.227 201.634 197.227 201.811C197.227 201.988 197.157 202.157 197.031 202.282C196.906 202.408 196.737 202.478 196.56 202.478H151.935C149.867 202.48 147.884 203.303 146.422 204.766C144.959 206.23 144.138 208.214 144.138 210.283C144.138 212.352 144.959 214.336 146.422 215.8C147.884 217.264 149.867 218.087 151.935 218.089H196.56C196.737 218.089 196.906 218.159 197.031 218.284C197.156 218.409 197.227 218.579 197.227 218.756Z" fill="#1E252B"/>
<path d="M196.159 205.546H149.467C149.45 205.546 149.432 205.543 149.416 205.536C149.4 205.53 149.385 205.52 149.372 205.507C149.36 205.495 149.35 205.48 149.343 205.464C149.336 205.448 149.333 205.43 149.333 205.413C149.333 205.395 149.336 205.378 149.343 205.361C149.35 205.345 149.36 205.33 149.372 205.318C149.385 205.306 149.4 205.296 149.416 205.289C149.432 205.283 149.45 205.279 149.467 205.279H196.159C196.195 205.28 196.228 205.294 196.253 205.319C196.278 205.344 196.292 205.377 196.292 205.413C196.292 205.448 196.278 205.482 196.253 205.507C196.228 205.532 196.195 205.546 196.159 205.546Z" fill="#A3B2B7"/>
<path d="M196.159 208.749H149.467C149.45 208.749 149.432 208.746 149.416 208.739C149.4 208.733 149.385 208.723 149.372 208.711C149.36 208.698 149.35 208.683 149.343 208.667C149.336 208.651 149.333 208.633 149.333 208.616C149.333 208.598 149.336 208.581 149.343 208.565C149.35 208.548 149.36 208.534 149.372 208.521C149.385 208.509 149.4 208.499 149.416 208.492C149.432 208.486 149.45 208.482 149.467 208.482H196.159C196.195 208.483 196.228 208.497 196.253 208.522C196.278 208.547 196.292 208.581 196.292 208.616C196.292 208.651 196.278 208.685 196.253 208.71C196.228 208.735 196.195 208.749 196.159 208.749Z" fill="#A3B2B7"/>
<path d="M196.159 211.95H149.467C149.45 211.951 149.432 211.947 149.416 211.941C149.4 211.934 149.385 211.924 149.372 211.912C149.36 211.899 149.35 211.885 149.343 211.868C149.336 211.852 149.333 211.835 149.333 211.817C149.333 211.799 149.336 211.782 149.343 211.766C149.35 211.75 149.36 211.735 149.372 211.722C149.385 211.71 149.4 211.7 149.416 211.693C149.432 211.687 149.45 211.683 149.467 211.684H196.159C196.195 211.684 196.228 211.698 196.253 211.723C196.278 211.748 196.292 211.782 196.292 211.817C196.292 211.852 196.278 211.886 196.253 211.911C196.228 211.936 196.195 211.95 196.159 211.95Z" fill="#A3B2B7"/>
<path d="M196.159 215.154H149.467C149.45 215.154 149.432 215.15 149.416 215.144C149.4 215.137 149.385 215.127 149.372 215.115C149.36 215.102 149.35 215.088 149.343 215.071C149.336 215.055 149.333 215.038 149.333 215.02C149.333 215.003 149.336 214.985 149.343 214.969C149.35 214.953 149.36 214.938 149.372 214.925C149.385 214.913 149.4 214.903 149.416 214.897C149.432 214.89 149.45 214.887 149.467 214.887H196.159C196.195 214.887 196.228 214.901 196.253 214.926C196.278 214.951 196.292 214.985 196.292 215.02C196.292 215.055 196.278 215.089 196.253 215.114C196.228 215.139 196.195 215.153 196.159 215.154Z" fill="#A3B2B7"/>
<path d="M273.385 25.0779V2.36984C273.385 1.74154 273.635 1.13917 274.08 0.694886C274.524 0.250607 275.126 0.000697194 275.754 0H294.994C295.622 0.000697194 296.225 0.250607 296.669 0.694886C297.113 1.13917 297.363 1.74154 297.364 2.36984V25.0779C297.363 25.7062 297.113 26.3086 296.669 26.7529C296.225 27.1971 295.622 27.4471 294.994 27.4478H275.754C275.126 27.4471 274.524 27.1971 274.08 26.7529C273.635 26.3086 273.385 25.7062 273.385 25.0779Z" fill="#30BAEF"/>
<path d="M236 35.6106V12.9025C236.001 12.2742 236.251 11.6719 236.695 11.2276C237.139 10.7833 237.741 10.5334 238.369 10.5327H257.61C258.238 10.5334 258.84 10.7833 259.284 11.2276C259.728 11.6719 259.978 12.2742 259.979 12.9025V35.6106C259.978 36.2389 259.728 36.8413 259.284 37.2856C258.84 37.7299 258.238 37.9798 257.61 37.9805H238.369C237.741 37.9798 237.139 37.7299 236.695 37.2856C236.251 36.8413 236.001 36.2389 236 35.6106Z" fill="#A3B2B7"/>
<path d="M266.013 67.7351V45.0271C266.014 44.3988 266.264 43.7964 266.708 43.3521C267.152 42.9078 267.754 42.6579 268.383 42.6572H287.623C288.251 42.6579 288.853 42.9078 289.297 43.3521C289.742 43.7964 289.991 44.3988 289.992 45.0271V67.7351C289.991 68.3634 289.742 68.9658 289.297 69.4101C288.853 69.8544 288.251 70.1043 287.623 70.105H268.383C267.754 70.1043 267.152 69.8544 266.708 69.4101C266.264 68.9658 266.014 68.3634 266.013 67.7351Z" fill="#121212"/>
<path d="M298.534 170.265H278.738C278.55 170.265 278.364 170.308 278.196 170.391L273.199 172.893C273.035 172.963 272.895 173.08 272.796 173.229C272.698 173.378 272.645 173.553 272.645 173.731C272.645 173.91 272.698 174.085 272.796 174.234C272.895 174.383 273.035 174.499 273.199 174.569L278.196 177.071C278.364 177.154 278.55 177.197 278.738 177.197H298.534C298.807 177.213 299.075 177.121 299.28 176.94C299.485 176.76 299.611 176.506 299.63 176.233V171.23C299.611 170.957 299.485 170.703 299.28 170.522C299.075 170.342 298.807 170.25 298.534 170.265Z" fill="#1E252B"/>
<path d="M299.63 171.23V176.233C299.611 176.506 299.485 176.76 299.28 176.94C299.075 177.121 298.807 177.213 298.534 177.197H294.59V170.265H298.534C298.807 170.25 299.075 170.342 299.28 170.522C299.485 170.703 299.611 170.957 299.63 171.23Z" fill="#30BAEF"/>
<path d="M298.385 132.834C299.282 132.447 300.25 132.254 301.227 132.267C302.203 132.281 303.166 132.5 304.052 132.912C304.937 133.323 305.726 133.917 306.367 134.654C307.007 135.392 307.484 136.256 307.767 137.191C307.855 137.488 307.923 137.79 307.969 138.096L335.652 151.826L342.059 147.579L350.03 156.758L340.248 164.704C339.072 165.652 337.621 166.195 336.111 166.254C334.602 166.312 333.113 165.882 331.867 165.027L303.78 145.601C303.571 145.689 303.358 145.767 303.141 145.834C302.206 146.117 301.222 146.199 300.253 146.074C299.284 145.95 298.352 145.623 297.519 145.114C296.685 144.604 295.969 143.925 295.417 143.119C294.864 142.313 294.488 141.4 294.313 140.439C294.261 140.16 294.227 139.878 294.211 139.595C294.133 138.177 294.491 136.768 295.237 135.56C295.984 134.351 297.082 133.4 298.385 132.834Z" fill="#FE8C62"/>
<path d="M356.044 217.369H325.795C325.795 218.239 294.62 218.945 294.62 218.945C294.131 219.313 293.685 219.736 293.291 220.205C292.107 221.617 291.459 223.403 291.463 225.246V226.506C291.464 228.595 292.294 230.598 293.771 232.075C295.248 233.552 297.251 234.383 299.339 234.383H356.044C358.133 234.382 360.135 233.551 361.611 232.074C363.088 230.597 363.918 228.595 363.92 226.506V225.246C363.917 223.158 363.086 221.156 361.61 219.679C360.134 218.203 358.132 217.372 356.044 217.369Z" fill="#1E252B"/>
<path d="M323.14 285.004H331.331V232.071H323.14V285.004Z" fill="#1E252B"/>
<path d="M299.828 284.716C299.828 285.601 312.24 285.058 327.551 285.058C342.861 285.058 355.273 285.601 355.273 284.716C355.273 283.831 342.861 276.812 327.551 276.812C312.24 276.812 299.828 283.831 299.828 284.716Z" fill="#1E252B"/>
<path d="M307.222 277.511L299.498 277.511L295.823 257.474L307.224 257.474L307.222 277.511Z" fill="#FE8C62"/>
<path d="M309.193 285L284.286 284.999V284.684C284.286 283.411 284.537 282.15 285.024 280.974C285.511 279.797 286.225 278.728 287.126 277.828C288.026 276.928 289.094 276.213 290.271 275.726C291.447 275.239 292.707 274.988 293.981 274.988H293.981L309.193 274.989L309.193 285Z" fill="#121212"/>
<path d="M295.669 268.087L280.27 233.549C278.984 230.638 278.842 227.35 279.872 224.339C280.902 221.328 283.028 218.815 285.826 217.301L319.228 199.387L334.47 198.091L348.529 196.812L348.631 196.984C348.76 197.203 351.783 202.425 349.74 208.152C348.19 212.495 344.158 215.888 337.757 218.235C322.815 223.715 305.555 228.398 298.828 230.157C298.531 230.233 298.253 230.371 298.013 230.562C297.772 230.753 297.576 230.993 297.435 231.266C297.293 231.535 297.21 231.831 297.188 232.134C297.167 232.438 297.209 232.743 297.311 233.029L311.617 265.176C311.767 265.584 311.821 266.021 311.775 266.452C311.729 266.884 311.584 267.3 311.352 267.667C311.12 268.034 310.807 268.343 310.437 268.57C310.067 268.797 309.65 268.936 309.217 268.976L298.527 269.754C298.437 269.763 298.346 269.767 298.256 269.767C297.709 269.767 297.173 269.608 296.714 269.31C296.255 269.012 295.892 268.587 295.669 268.087Z" fill="#121212"/>
<path d="M311.003 277.511L303.279 277.511L299.604 257.474L311.004 257.474L311.003 277.511Z" fill="#FE8C62"/>
<path d="M312.973 285L288.066 284.999V284.684C288.066 283.411 288.317 282.15 288.804 280.974C289.292 279.797 290.006 278.728 290.906 277.828C291.806 276.928 292.875 276.213 294.051 275.726C295.227 275.239 296.488 274.988 297.761 274.988H297.761L312.973 274.989L312.973 285Z" fill="#121212"/>
<path d="M300.08 269.976L284.681 235.439C283.395 232.528 283.253 229.239 284.283 226.228C285.312 223.217 287.438 220.705 290.237 219.191L323.638 201.277L338.88 199.98L352.94 198.702L353.041 198.874C353.171 199.093 356.194 204.315 354.15 210.041C352.6 214.385 348.569 217.777 342.167 220.125C327.226 225.604 309.966 230.288 303.239 232.046C302.941 232.122 302.663 232.26 302.423 232.452C302.183 232.643 301.986 232.882 301.845 233.155C301.704 233.425 301.62 233.721 301.599 234.024C301.578 234.328 301.619 234.632 301.722 234.919L316.028 267.066C316.178 267.474 316.231 267.91 316.185 268.342C316.139 268.774 315.995 269.189 315.763 269.557C315.531 269.924 315.218 270.233 314.848 270.459C314.478 270.686 314.06 270.825 313.628 270.865L302.938 271.644C302.847 271.653 302.757 271.657 302.667 271.657C302.12 271.657 301.584 271.498 301.125 271.2C300.666 270.901 300.303 270.476 300.08 269.976Z" fill="#121212"/>
<path d="M292.404 164.469C285.933 155.86 280.818 146.312 277.235 136.155C277.028 135.548 277.043 134.886 277.277 134.288C277.512 133.691 277.95 133.196 278.516 132.891L300.659 121.024C301.017 120.831 301.415 120.722 301.822 120.705C302.229 120.689 302.634 120.765 303.006 120.929C303.386 121.094 303.723 121.344 303.992 121.659C304.261 121.973 304.454 122.346 304.557 122.746C307.135 132.534 311.979 141.577 318.699 149.144C318.976 149.452 319.179 149.819 319.292 150.217C319.405 150.616 319.426 151.034 319.353 151.442C319.283 151.843 319.123 152.223 318.884 152.553C318.644 152.882 318.333 153.153 317.974 153.344L295.83 165.211C295.264 165.513 294.609 165.604 293.981 165.468C293.354 165.332 292.795 164.978 292.404 164.469Z" fill="#A3B2B7"/>
<path d="M293.916 163.334C294.035 163.482 294.202 163.585 294.389 163.623C294.575 163.662 294.769 163.634 294.938 163.545L317.081 151.678C317.189 151.622 317.282 151.541 317.353 151.443C317.425 151.345 317.472 151.232 317.493 151.112C317.516 150.986 317.509 150.856 317.474 150.733C317.438 150.61 317.374 150.496 317.288 150.402C310.37 142.611 305.382 133.302 302.729 123.226C302.698 123.102 302.639 122.986 302.556 122.888C302.474 122.79 302.369 122.713 302.251 122.662C302.141 122.613 302.02 122.589 301.898 122.594C301.777 122.599 301.658 122.633 301.552 122.691L279.409 134.558C279.241 134.649 279.11 134.795 279.039 134.972C278.968 135.149 278.96 135.345 279.018 135.527C282.537 145.501 287.561 154.879 293.916 163.334Z" fill="white"/>
<path d="M365.969 161.303L348.627 167.894L344.393 156.132C343.83 154.57 343.838 152.859 344.415 151.302C344.992 149.746 346.1 148.443 347.544 147.625C349.005 146.797 350.714 146.519 352.362 146.84C354.009 147.162 355.488 148.063 356.53 149.379L365.969 161.303Z" fill="#30BAEF"/>
<path d="M321.858 207.91C321.493 207.651 321.188 207.318 320.961 206.933C320.735 206.547 320.593 206.118 320.546 205.673C318.324 184.935 319.872 168.706 325.275 156.058C326.226 153.877 327.66 151.939 329.468 150.392C331.276 148.844 333.411 147.726 335.713 147.123L349.731 146.415L349.804 146.45C352.967 148 355.547 150.528 357.161 153.659C358.775 156.791 359.336 160.359 358.763 163.835C354.254 175.722 350.479 188.098 353.358 198.082C353.479 198.499 353.514 198.936 353.461 199.368C353.409 199.799 353.27 200.215 353.053 200.592C352.843 200.956 352.56 201.272 352.222 201.523C351.884 201.773 351.499 201.951 351.09 202.047L324.389 208.399C323.957 208.502 323.507 208.512 323.071 208.427C322.635 208.343 322.221 208.166 321.858 207.91Z" fill="#30BAEF"/>
<path d="M345.053 141.178C353.6 141.178 360.528 134.249 360.528 125.701C360.528 117.153 353.6 110.224 345.053 110.224C336.506 110.224 329.578 117.153 329.578 125.701C329.578 134.249 336.506 141.178 345.053 141.178Z" fill="#FE8C62"/>
<path d="M302.113 137.959L290.053 143.284C289.594 143.486 289.074 143.497 288.607 143.316C288.139 143.135 287.763 142.776 287.56 142.318L287.262 141.642C287.06 141.183 287.048 140.663 287.229 140.196C287.41 139.728 287.77 139.352 288.228 139.149L300.288 133.824C300.747 133.623 301.267 133.611 301.734 133.792C302.201 133.973 302.578 134.332 302.781 134.79L303.079 135.466C303.281 135.925 303.292 136.445 303.111 136.912C302.93 137.38 302.571 137.756 302.113 137.959Z" fill="#A3B2B7"/>
<path d="M306.523 146.152L294.463 151.476C294.004 151.678 293.484 151.69 293.017 151.509C292.55 151.327 292.173 150.968 291.97 150.51L291.672 149.834C291.47 149.375 291.458 148.855 291.64 148.388C291.821 147.921 292.18 147.544 292.638 147.341L304.698 142.017C305.157 141.815 305.677 141.803 306.144 141.984C306.612 142.165 306.988 142.525 307.191 142.983L307.489 143.659C307.691 144.117 307.703 144.638 307.522 145.105C307.34 145.572 306.981 145.949 306.523 146.152Z" fill="#A3B2B7"/>
<path d="M315.824 178.15L288.937 156.935C288.723 157.01 288.505 157.074 288.284 157.127C287.335 157.349 286.35 157.369 285.393 157.186C284.436 157.002 283.528 156.619 282.728 156.062C281.923 155.504 281.247 154.78 280.744 153.94C280.242 153.099 279.924 152.161 279.813 151.188C279.633 149.633 279.984 148.062 280.808 146.731C281.633 145.399 282.883 144.386 284.355 143.854C285.275 143.525 286.253 143.393 287.227 143.468C288.201 143.542 289.148 143.822 290.006 144.288C290.864 144.755 291.614 145.397 292.206 146.173C292.799 146.95 293.221 147.842 293.445 148.793C293.514 149.095 293.562 149.4 293.589 149.708L320.355 165.152L327.016 161.316L334.394 170.978L324.052 178.35C322.842 179.206 321.387 179.649 319.905 179.613C318.423 179.577 316.992 179.064 315.824 178.15Z" fill="#FE8C62"/>
<path d="M337.675 173.986L322.334 163.553L329.544 153.34C330.501 151.984 331.907 151.01 333.513 150.59C335.119 150.17 336.821 150.332 338.32 151.046C339.835 151.769 341.043 153.009 341.724 154.544C342.405 156.079 342.515 157.807 342.033 159.416L337.675 173.986Z" fill="#30BAEF"/>
<path d="M339.379 123.396C335.402 126.118 330.179 128.917 326.117 126.018C323.45 124.114 322.609 120.589 323.691 117.495C325.636 111.932 330.981 109.482 336.091 107.605C342.735 105.164 349.968 103.223 356.827 104.971C363.685 106.718 369.747 113.36 368.509 120.329C367.513 125.934 362.227 130.598 362.977 136.24C363.732 141.919 370.118 144.909 375.756 145.924C381.393 146.939 387.702 147.265 391.753 151.315C396.922 156.481 395.631 165.716 390.768 171.171C385.905 176.626 378.566 179.098 371.454 180.779C362.032 183.006 351.841 184.177 342.892 180.481C333.944 176.784 326.98 166.835 329.572 157.505C330.667 153.564 333.247 150.234 335.74 146.991C338.232 143.749 340.757 140.358 341.708 136.38C342.5 133.065 341.914 129.216 339.716 126.73C339.316 126.294 339.064 125.744 338.997 125.156C338.93 124.569 339.05 123.976 339.341 123.461L339.379 123.396Z" fill="#121212"/>
<path d="M68.7218 200.595C64.7342 201.997 60.4528 202.348 56.2902 201.614C52.1275 200.881 48.2239 199.088 44.9553 196.407C36.6309 189.42 34.021 177.907 31.8974 167.247C29.8037 156.737 27.7099 146.227 25.6162 135.717L38.7666 144.773C48.2235 151.286 57.8935 158.007 64.4415 167.44C70.9894 176.874 73.8476 189.751 68.5865 199.958" fill="#26ABDE"/>
<path d="M67.5976 238.769C68.9285 229.073 70.2972 219.252 69.3635 209.451C68.5344 200.747 65.8794 192.246 60.4742 185.276C57.6051 181.583 54.1139 178.419 50.1577 175.926C49.126 175.275 48.1765 176.91 49.2037 177.558C56.0491 181.885 61.3438 188.275 64.3243 195.805C67.6163 204.18 68.145 213.308 67.5777 222.205C67.2346 227.584 66.5075 232.929 65.7749 238.266C65.7171 238.508 65.7532 238.762 65.8757 238.978C65.9982 239.194 66.1981 239.355 66.435 239.429C66.6766 239.494 66.9342 239.462 67.1518 239.338C67.3695 239.214 67.5296 239.01 67.5975 238.769H67.5976Z" fill="#EDEEEF"/>
<path d="M54.7779 221.611C53.0677 224.21 50.7169 226.326 47.952 227.753C45.1871 229.18 42.1014 229.871 38.992 229.759C31.0008 229.38 24.3388 223.802 18.3417 218.506L0.603516 202.842L12.3433 202.28C20.7858 201.876 29.4461 201.499 37.4874 204.103C45.5286 206.707 52.9446 212.974 54.415 221.298" fill="#26ABDE"/>
<path d="M71.3591 244.343C64.9528 233.005 57.5221 220.405 44.2447 216.378C40.5529 215.262 36.6819 214.862 32.84 215.2C31.6292 215.305 31.9315 217.172 33.1402 217.067C39.58 216.533 46.0074 218.233 51.3403 221.883C56.4721 225.377 60.4677 230.234 63.8496 235.384C65.9211 238.539 67.7766 241.828 69.6324 245.112C70.2255 246.162 71.9591 245.404 71.3591 244.343Z" fill="#EDEEEF"/>
<path d="M81.6238 256.276C81.408 253.774 80.51 251.38 79.0277 249.354C77.5453 247.327 75.5355 245.747 73.2171 244.784V238.229H62.2258V244.99C60.0215 246 58.1244 247.577 56.728 249.56C55.3316 251.542 54.4859 253.86 54.2769 256.276L51.6924 286.324H84.2084L81.6238 256.276Z" fill="#EDEEEF"/>
</svg>
