<svg width="57" height="161" viewBox="0 0 57 161" fill="none" xmlns="http://www.w3.org/2000/svg">
<path d="M35.1439 154.819H40.2844L42.7303 134.99H35.1431L35.1439 154.819Z" fill="#FE8C62"/>
<path d="M50.1992 159.592L34.0423 159.593L34.042 153.35L43.9565 153.35C45.6121 153.35 47.1999 154.007 48.3706 155.178C49.5414 156.348 50.1991 157.936 50.1992 159.592L50.1992 159.592Z" fill="#1E252B"/>
<path d="M7.79248 153.831L12.8885 154.51L17.9339 135.178L10.4133 134.176L7.79248 153.831Z" fill="#FE8C62"/>
<path d="M22.085 160.552L6.06978 158.416L6.89478 152.229L16.7223 153.539C18.3634 153.758 19.8503 154.62 20.856 155.935C21.8617 157.25 22.3038 158.911 22.085 160.552Z" fill="#1E252B"/>
<path d="M15.0958 72.9238L44.0293 74.1818L42.7713 147.564L35.2234 146.725L29.3529 96.8254L15.5151 150.08L7.96729 148.822L15.0958 72.9238Z" fill="#1E252B"/>
<path d="M34.3849 29.3137L24.3211 27.2578L18.0312 73.3428C18.0312 73.3428 36.4816 85.5033 42.3521 72.9235L34.3849 29.3137Z" fill="#30BAEF"/>
<path d="M29.9953 23.9018C35.6834 23.9018 40.2944 19.2908 40.2944 13.6028C40.2944 7.91476 35.6834 3.30371 29.9953 3.30371C24.3073 3.30371 19.6963 7.91476 19.6963 13.6028C19.6963 19.2908 24.3073 23.9018 29.9953 23.9018Z" fill="#FE8C62"/>
<path d="M24.3212 26.7979L9.6448 31.4104C9.6448 31.4104 16.7733 67.0531 5.03223 85.5034C5.03223 85.5034 19.7086 101.018 25.9985 66.2144C25.9985 66.2144 31.0304 38.1196 24.3212 26.7979Z" fill="#1E252B"/>
<path d="M34.3848 29.3145L45.2872 36.0237C45.2872 36.0237 51.1578 85.0847 45.2872 89.6973C39.4167 94.3099 34.3848 29.3145 34.3848 29.3145Z" fill="#1E252B"/>
<path d="M49.82 96.8118C49.3732 96.3871 49.0249 95.8697 48.7997 95.2958C48.5745 94.722 48.4778 94.1058 48.5165 93.4905C48.5552 92.8753 48.7283 92.276 49.0237 91.735C49.3191 91.1939 49.7295 90.7242 50.226 90.3588L45.7935 76.0449L53.2711 78.2169L56.3339 91.4767C56.8924 92.3515 57.1105 93.4008 56.9469 94.4257C56.7834 95.4506 56.2496 96.3799 55.4467 97.0375C54.6437 97.6951 53.6275 98.0354 52.5904 97.9938C51.5534 97.9522 50.5677 97.5316 49.82 96.8118Z" fill="#FE8C62"/>
<path d="M12.1548 92.6724C11.6573 92.3084 11.2456 91.8398 10.9488 91.2995C10.652 90.7592 10.4772 90.1604 10.4368 89.5453C10.3965 88.9302 10.4915 88.3137 10.7151 87.7393C10.9388 87.1648 11.2857 86.6464 11.7314 86.2205L5.50293 72.5918L13.1971 73.7887L17.9322 86.5473C18.598 87.3434 18.9486 88.3562 18.9176 89.3936C18.8866 90.431 18.4762 91.421 17.764 92.176C17.0519 92.931 16.0876 93.3985 15.0537 93.49C14.0199 93.5815 12.9884 93.2906 12.1548 92.6724H12.1548Z" fill="#FE8C62"/>
<path d="M13.4184 31.8305L9.64448 31.4111L0 62.8605L9.64448 84.6654L17.1923 80.0529L8.80583 62.0219L15.515 42.7329L13.4184 31.8305Z" fill="#1E252B"/>
<path d="M43.1903 35.6045L45.2869 36.0238L55.3507 85.0849L48.6415 87.1815L40.6743 58.2481L43.1903 35.6045Z" fill="#1E252B"/>
<path d="M22.9179 17.8315C23.0568 16.8195 23.4561 15.8609 24.0768 15.0496C24.6975 14.2384 25.5183 13.6022 26.4588 13.2036C28.4412 12.3907 30.6775 12.7341 32.8145 12.8895C34.9514 13.045 37.3306 12.91 38.8727 11.4225C40.2815 10.0636 40.5983 7.80856 39.918 5.97321C39.2377 4.13787 37.6972 2.71296 35.9472 1.83615C34.1639 1.01829 32.2532 0.513331 30.2987 0.343357C27.4426 -0.00169784 24.5098 -0.0456818 21.7262 0.680539C18.9426 1.40676 19.6603 2.96338 18.0291 5.33295C16.3979 7.70253 15.9092 10.9309 17.1529 13.5249C17.9851 15.2607 19.4763 16.5745 20.9285 17.8381" fill="#1E252B"/>
</svg>
