<svg width="14" height="14" viewBox="0 0 14 14" fill="none" xmlns="http://www.w3.org/2000/svg">
<path fill-rule="evenodd" clip-rule="evenodd" d="M9.59464 7.74456L12.2937 8.98843C12.9906 9.30959 13.438 10.0141 13.438 10.7902V11.354C13.438 12.4471 12.564 13.3332 11.4859 13.3332H2.89688C1.81879 13.3332 0.944824 12.4471 0.944824 11.354V10.7902C0.944824 10.0141 1.39224 9.30959 2.08911 8.98843L4.78815 7.74456C3.87454 7.02005 3.28729 5.89198 3.28729 4.62484C3.28729 2.43871 5.03522 0.666504 7.1914 0.666504C9.34758 0.666504 11.0955 2.43871 11.0955 4.62484C11.0955 5.89198 10.5083 7.02005 9.59464 7.74456ZM5.59951 8.24025L2.41222 9.70914C1.9941 9.90183 1.72565 10.3245 1.72565 10.7902V11.354C1.72565 12.0098 2.25002 12.5415 2.89688 12.5415H11.4859C12.1328 12.5415 12.6572 12.0098 12.6572 11.354V10.7902C12.6572 10.3245 12.3887 9.90183 11.9706 9.70914L8.78329 8.24025C8.29713 8.46063 7.75838 8.58317 7.1914 8.58317C6.62442 8.58317 6.08567 8.46063 5.59951 8.24025ZM10.3147 4.62484C10.3147 6.37374 8.91634 7.7915 7.1914 7.7915C5.46646 7.7915 4.06811 6.37374 4.06811 4.62484C4.06811 2.87594 5.46646 1.45817 7.1914 1.45817C8.91634 1.45817 10.3147 2.87594 10.3147 4.62484Z" fill="#1E252B"/>
</svg>
