<svg width="20" height="20" viewBox="0 0 20 20" fill="none" xmlns="http://www.w3.org/2000/svg">
<path fill-rule="evenodd" clip-rule="evenodd" d="M0 10C0 15.5228 4.47715 20 10 20C15.5228 20 20 15.5228 20 10C20 4.47715 15.5228 0 10 0C4.47715 0 0 4.47715 0 10ZM12.5001 13.9998H11.0001V8.49979C11.0001 8.22365 10.7762 7.99979 10.5001 7.99979H8.5001C8.22396 7.99979 8.0001 8.22365 8.0001 8.49979C8.0001 8.77594 8.22396 8.99979 8.5001 8.99979H10.0001V13.9998H8.5001C8.22396 13.9998 8.0001 14.2237 8.0001 14.4998C8.0001 14.7759 8.22396 14.9998 8.5001 14.9998H12.5001C12.7762 14.9998 13.0001 14.7759 13.0001 14.4998C13.0001 14.2237 12.7762 13.9998 12.5001 13.9998ZM9.99984 19.0003C14.9704 19.0003 18.9998 14.9708 18.9998 10.0003C18.9998 5.02972 14.9704 1.00028 9.99984 1.00028C5.02927 1.00028 0.999837 5.02972 0.999837 10.0003C0.999837 14.9708 5.02927 19.0003 9.99984 19.0003ZM10.5 4.9998H9.49997C9.22383 4.9998 8.99997 5.22365 8.99997 5.4998V6.4998C8.99997 6.77594 9.22383 6.9998 9.49997 6.9998H10.5C10.7761 6.9998 11 6.77594 11 6.4998V5.4998C11 5.22365 10.7761 4.9998 10.5 4.9998Z" fill="#FA6F3C"/>
</svg>
