<svg width="12" height="28" viewBox="0 0 12 28" fill="none" xmlns="http://www.w3.org/2000/svg">
<path d="M11.3363 0.00580311L8.6227 0C5.57403 0 3.60385 2.69409 3.60385 6.86392V10.0286H0.875422C0.639653 10.0286 0.44873 10.2834 0.44873 10.5976V15.183C0.44873 15.4972 0.639871 15.7517 0.875422 15.7517H3.60385V27.3219C3.60385 27.6362 3.79477 27.8906 4.03054 27.8906H7.59037C7.82613 27.8906 8.01706 27.6359 8.01706 27.3219V15.7517H11.2072C11.443 15.7517 11.6339 15.4972 11.6339 15.183L11.6352 10.5976C11.6352 10.4468 11.5902 10.3023 11.5103 10.1955C11.4304 10.0887 11.3215 10.0286 11.2083 10.0286H8.01706V7.34587C8.01706 6.05642 8.2476 5.40183 9.50786 5.40183L11.3359 5.40096C11.5714 5.40096 11.7624 5.1462 11.7624 4.83225V0.574508C11.7624 0.26085 11.5717 0.00638342 11.3363 0.00580311Z" fill="#A3B2B7"/>
</svg>
