<svg width="27" height="28" viewBox="0 0 27 28" fill="none" xmlns="http://www.w3.org/2000/svg">
<path d="M26.4497 3.2999C25.5016 3.85988 24.4842 4.23965 23.4152 4.4092C24.5067 3.53806 25.3422 2.15632 25.7382 0.514927C24.7144 1.32165 23.5842 1.90744 22.3801 2.22499C21.4158 0.853967 20.0443 0 18.523 0C15.6044 0 13.238 3.15403 13.238 7.04185C13.238 7.59324 13.2847 8.13179 13.3748 8.64677C8.98328 8.35279 5.08917 5.54851 2.48289 1.28732C2.02731 2.32581 1.76813 3.53588 1.76813 4.82757C1.76813 7.27143 2.70183 9.42775 4.11847 10.6893C3.25238 10.6507 2.43781 10.3332 1.72469 9.80533V9.8933C1.72469 13.3048 3.547 16.152 5.9633 16.8C5.5206 16.9588 5.05377 17.0467 4.57082 17.0467C4.22956 17.0467 3.89954 17.0017 3.57596 16.9158C4.24884 19.7159 6.19996 21.752 8.51166 21.8078C6.70383 23.696 4.42433 24.8181 1.94846 24.8181C1.52188 24.8181 1.10169 24.7838 0.687988 24.7216C3.02705 26.7234 5.80398 27.8906 8.78856 27.8906C18.5102 27.8906 23.8242 17.1583 23.8242 7.85076L23.8065 6.9389C24.8448 5.95185 25.743 4.71171 26.4497 3.2999Z" fill="#A3B2B7"/>
</svg>
