<svg width="31" height="28" viewBox="0 0 31 28" fill="none" xmlns="http://www.w3.org/2000/svg">
<path d="M29.3941 2.68764C28.5685 0.730227 27.6725 0.370185 25.8481 0.233267C24.0257 0.0684588 19.4429 0 15.4727 0C11.4948 0 6.91015 0.068459 5.0896 0.230732C3.26904 0.370185 2.37113 0.727692 1.5379 2.68764C0.687542 4.64252 0.25 8.00968 0.25 13.9377C0.25 13.9428 0.25 13.9453 0.25 13.9453C0.25 13.9504 0.25 13.9529 0.25 13.9529V13.958C0.25 19.8607 0.687542 23.2532 1.5379 25.1878C2.37113 27.1452 3.26714 27.5002 5.08769 27.665C6.91015 27.807 11.4948 27.8906 15.4727 27.8906C19.4429 27.8906 24.0257 27.807 25.85 27.6675C27.6744 27.5027 28.5704 27.1477 29.396 25.1903C30.254 23.2557 30.6877 19.8632 30.6877 13.9605C30.6877 13.9605 30.6877 13.9529 30.6877 13.9478C30.6877 13.9478 30.6877 13.9428 30.6877 13.9402C30.6877 8.00968 30.254 4.64252 29.3941 2.68764ZM11.6641 21.5518V6.33878L21.1759 13.9453L11.6641 21.5518Z" fill="#A3B2B7"/>
</svg>
