<svg width="172" height="40" viewBox="0 0 172 40" fill="none" xmlns="http://www.w3.org/2000/svg">
<path d="M63.332 31.7793C62.7168 31.7793 62.1807 31.7148 61.7236 31.5859V29.3184C62.1924 29.4355 62.6201 29.4941 63.0068 29.4941C63.6045 29.4941 64.0322 29.3066 64.29 28.9316C64.5479 28.5625 64.6768 27.9824 64.6768 27.1914V15.1504H67.4014V27.1738C67.4014 28.6738 67.0586 29.8164 66.373 30.6016C65.6875 31.3867 64.6738 31.7793 63.332 31.7793Z" fill="#A3B2B7"/>
<path d="M78.0361 28H70.6357V15.1504H78.0361V17.3828H73.3604V20.2041H77.7109V22.4365H73.3604V25.75H78.0361V28Z" fill="#A3B2B7"/>
<path d="M85.6035 20.7842H90.7012V27.4463C89.875 27.7158 89.0957 27.9033 88.3633 28.0088C87.6367 28.1201 86.8926 28.1758 86.1309 28.1758C84.1914 28.1758 82.709 27.6074 81.6836 26.4707C80.6641 25.3281 80.1543 23.6904 80.1543 21.5576C80.1543 19.4834 80.7461 17.8662 81.9297 16.7061C83.1191 15.5459 84.7656 14.9658 86.8691 14.9658C88.1875 14.9658 89.459 15.2295 90.6836 15.7568L89.7783 17.9365C88.8408 17.4678 87.8652 17.2334 86.8516 17.2334C85.6738 17.2334 84.7305 17.6289 84.0215 18.4199C83.3125 19.2109 82.958 20.2744 82.958 21.6104C82.958 23.0049 83.2422 24.0713 83.8105 24.8096C84.3848 25.542 85.2168 25.9082 86.3066 25.9082C86.875 25.9082 87.4521 25.8496 88.0381 25.7324V23.0518H85.6035V20.7842Z" fill="#A3B2B7"/>
<path d="M97.7676 20.4414L100.448 15.1504H103.384L99.1211 22.999V28H96.4141V23.0869L92.1514 15.1504H95.1045L97.7676 20.4414Z" fill="#A3B2B7"/>
<path d="M113.377 28H103.814V26.2334L109.976 17.4004H103.981V15.1504H113.21V16.9082L107.058 25.75H113.377V28Z" fill="#A3B2B7"/>
<path d="M127.088 21.5576C127.088 23.6846 126.561 25.3193 125.506 26.4619C124.451 27.6045 122.939 28.1758 120.971 28.1758C119.002 28.1758 117.49 27.6045 116.436 26.4619C115.381 25.3193 114.854 23.6787 114.854 21.54C114.854 19.4014 115.381 17.7695 116.436 16.6445C117.496 15.5137 119.014 14.9482 120.988 14.9482C122.963 14.9482 124.472 15.5166 125.515 16.6533C126.563 17.79 127.088 19.4248 127.088 21.5576ZM117.71 21.5576C117.71 22.9932 117.982 24.0742 118.527 24.8008C119.072 25.5273 119.887 25.8906 120.971 25.8906C123.145 25.8906 124.231 24.4463 124.231 21.5576C124.231 18.6631 123.15 17.2158 120.988 17.2158C119.904 17.2158 119.087 17.582 118.536 18.3145C117.985 19.041 117.71 20.1221 117.71 21.5576ZM118.009 14.1221V13.8848C118.372 13.3867 118.715 12.8828 119.037 12.373C119.365 11.8574 119.591 11.4795 119.714 11.2393H122.359V11.4238C122.172 11.7344 121.744 12.1826 121.076 12.7686C120.408 13.3545 119.857 13.8057 119.424 14.1221H118.009ZM121.498 14.1221V13.8848C122.312 12.7598 122.884 11.8779 123.212 11.2393H125.857V11.4238C125.711 11.6758 125.342 12.0713 124.75 12.6104C124.164 13.1436 123.555 13.6475 122.922 14.1221H121.498Z" fill="#A3B2B7"/>
<path d="M129.751 28V15.1504H132.476V28H129.751Z" fill="#A3B2B7"/>
<path d="M147.109 28H143.646L138.057 18.2793H137.978C138.089 19.9961 138.145 21.2207 138.145 21.9531V28H135.71V15.1504H139.146L144.728 24.7744H144.789C144.701 23.1045 144.657 21.9238 144.657 21.2324V15.1504H147.109V28Z" fill="#A3B2B7"/>
<path d="M153.033 28H150.353V15.1504H157.718V17.3828H153.033V20.6963H157.393V22.9199H153.033V28Z" fill="#A3B2B7"/>
<path d="M171.895 21.5576C171.895 23.6846 171.367 25.3193 170.312 26.4619C169.258 27.6045 167.746 28.1758 165.777 28.1758C163.809 28.1758 162.297 27.6045 161.242 26.4619C160.188 25.3193 159.66 23.6787 159.66 21.54C159.66 19.4014 160.188 17.7695 161.242 16.6445C162.303 15.5137 163.82 14.9482 165.795 14.9482C167.77 14.9482 169.278 15.5166 170.321 16.6533C171.37 17.79 171.895 19.4248 171.895 21.5576ZM162.517 21.5576C162.517 22.9932 162.789 24.0742 163.334 24.8008C163.879 25.5273 164.693 25.8906 165.777 25.8906C167.951 25.8906 169.038 24.4463 169.038 21.5576C169.038 18.6631 167.957 17.2158 165.795 17.2158C164.711 17.2158 163.894 17.582 163.343 18.3145C162.792 19.041 162.517 20.1221 162.517 21.5576Z" fill="#A3B2B7"/>
<path fill-rule="evenodd" clip-rule="evenodd" d="M36.9112 5.24397C37.7954 5.47849 38.4145 6.3304 38.4145 6.70631C38.4145 6.95691 38.1816 7.31309 37.7158 7.77485C39.9278 13.5133 40.9672 16.4524 40.8338 16.5922C40.7004 16.732 39.3929 14.0741 36.9112 8.61832C34.4647 14.0749 33.162 16.7329 33.0033 16.5922C32.8445 16.4515 33.8298 13.5124 35.9593 7.77485C35.1558 6.80482 34.8415 6.14972 35.0163 5.80954C35.2786 5.29928 36.027 5.00946 36.9112 5.24397ZM5.06385 5.11113C5.94805 4.87661 6.69648 5.16643 6.95875 5.67669C7.1336 6.01687 6.81928 6.67197 6.01579 7.642C8.14524 13.3796 9.13059 16.3187 8.97182 16.4594C8.81306 16.6 7.5104 13.9421 5.06385 8.48547C2.58216 13.9412 1.27463 16.5992 1.14126 16.4594C1.00789 16.3195 2.04723 13.3804 4.25928 7.642C3.79348 7.18025 3.56058 6.82406 3.56058 6.57346C3.56058 6.19756 4.17965 5.34564 5.06385 5.11113Z" fill="#A3B2B7"/>
<path fill-rule="evenodd" clip-rule="evenodd" d="M26.0898 31.2315L24.7028 33.4686H17.1945L15.9094 31.2315H26.0898ZM20.9721 7.57682C23.3861 5.76421 25.7487 4.8579 28.06 4.8579C30.3713 4.8579 32.7233 5.4477 35.116 6.6273L35.9091 7.57682C32.4237 6.29261 29.8769 5.7191 28.2687 5.85629C25.8563 6.06207 24.8306 6.9186 24.0769 7.57682C23.5745 8.01564 23.0131 8.98266 22.3927 10.4779V27.2255H29.0842L27.8122 29.5444H14.2402L12.7056 27.2255H19.5566V10.4779C19.3295 9.10886 18.853 8.14184 18.127 7.57682C17.038 6.72929 16.2952 5.85629 13.5493 5.85629C11.7187 5.85629 9.1803 6.4298 5.93408 7.57682L6.25505 7.25946C8.56947 5.69984 11.0009 4.84336 13.5493 4.69004C16.0977 4.53673 18.572 5.49898 20.9721 7.57682ZM15.3573 8.25427L17.7049 9.86149V25.3304H15.3573V8.25427ZM26.4004 8.19771V25.2738H24.0528V9.80493L26.4004 8.19771ZM20.9721 0C22.3332 0 23.4366 1.08748 23.4366 2.42895C23.4366 3.77043 22.3332 4.8579 20.9721 4.8579C19.611 4.8579 18.5076 3.77043 18.5076 2.42895C18.5076 1.08748 19.611 0 20.9721 0Z" fill="#A3B2B7"/>
<path fill-rule="evenodd" clip-rule="evenodd" d="M42 17.3063C40.866 19.6231 39.2802 20.8563 37.2425 21.006C36.8103 25.0779 35.1915 28.7748 32.3864 32.0966C28.0494 37.2325 22.3678 40 20.9217 40C19.4755 40 14.0863 36.8902 9.73587 32.0966C6.93861 29.0145 5.38912 25.3493 5.08741 21.1012L5.05915 21.1016C2.81395 21.1016 1.12756 19.8632 0 17.3863H10.2455C9.05514 19.8182 7.36693 21.0562 5.18087 21.1003C6.11829 24.5606 7.93866 27.7064 10.642 30.538C14.8803 34.9773 20.5705 37.326 20.9997 37.326C21.4288 37.326 27.5845 34.4374 31.3866 30.538C33.8401 28.0216 35.759 24.8464 37.1434 21.0124C37.0347 21.0185 36.9248 21.0216 36.8137 21.0216C34.5684 21.0216 32.8821 19.7832 31.7545 17.3063H42Z" fill="#A3B2B7"/>
</svg>
