<svg width="15" height="14" viewBox="0 0 15 14" fill="none" xmlns="http://www.w3.org/2000/svg">
<path d="M5.68138 11.3597C6.80958 11.361 7.91232 11.0244 8.84751 10.3933L12.1334 13.6792C12.2351 13.7809 12.3558 13.8616 12.4887 13.9166C12.6216 13.9717 12.764 14 12.9079 14C13.0517 14 13.1941 13.9717 13.327 13.9166C13.4599 13.8616 13.5807 13.7809 13.6824 13.6792C13.7841 13.5775 13.8647 13.4567 13.9198 13.3239C13.9748 13.191 14.0032 13.0485 14.0032 12.9047C14.0032 12.7609 13.9748 12.6184 13.9198 12.4856C13.8647 12.3527 13.7841 12.2319 13.6824 12.1302L10.3965 8.84432C11.1022 7.79238 11.4361 6.53468 11.345 5.2712C11.2538 4.00771 10.7429 2.81095 9.89347 1.87119C9.04403 0.931427 7.90481 0.3026 6.65692 0.0846816C5.40904 -0.133237 4.12412 0.072262 3.00644 0.668507C1.88877 1.26475 1.00249 2.21752 0.488522 3.37534C-0.025451 4.53315 -0.137619 5.82956 0.169849 7.05845C0.477318 8.28734 1.18678 9.37817 2.18543 10.1575C3.18408 10.9369 4.41461 11.36 5.68138 11.3597ZM5.68138 1.31116C6.54511 1.31115 7.38945 1.56727 8.10763 2.04713C8.8258 2.52699 9.38555 3.20904 9.71609 4.00702C10.0466 4.80501 10.1331 5.68309 9.96462 6.53022C9.79612 7.37736 9.38019 8.15551 8.76944 8.76626C8.15869 9.37702 7.38054 9.79295 6.5334 9.96145C5.68627 10.13 4.80818 10.0435 4.0102 9.71293C3.21221 9.3824 2.53016 8.82265 2.0503 8.10448C1.57044 7.38631 1.31432 6.54197 1.31432 5.67824C1.31563 4.52042 1.77615 3.4104 2.59485 2.5917C3.41355 1.773 4.52357 1.31248 5.68138 1.31116Z" fill="#A3B2B7"/>
</svg>
