<svg width="9" height="14" viewBox="0 0 9 14" fill="none" xmlns="http://www.w3.org/2000/svg">
<path d="M7.30827 9.37417C8.31912 8.92908 8.92078 8.1951 8.92078 7.28467C8.92078 5.72717 7.5783 5.24883 5.71999 4.58675L4.68833 4.21867C2.82557 3.556 2.38528 3.36875 2.38528 2.5655C2.38528 1.267 4.26924 1.16667 4.84607 1.16667C5.41259 1.16667 7.25737 1.26758 7.25737 2.5655C7.25737 2.88808 7.62031 3.14883 8.06525 3.14883C8.5122 3.14883 8.87312 2.88808 8.87312 2.5655C8.87312 1.03133 7.25434 0 4.84607 0C2.40709 0 0.769531 1.03133 0.769531 2.5655C0.769531 3.62308 1.39563 4.18133 2.37235 4.63808C1.36978 5.08783 0.769531 5.82517 0.769531 6.73108C0.769531 8.28975 2.11303 8.76808 3.97275 9.429L5.00441 9.7981C6.86575 10.4603 7.30524 10.6469 7.30524 11.4501C7.30524 12.733 5.42289 12.8332 4.84687 12.8332C4.26924 12.8332 2.38609 12.7329 2.38609 11.4501C2.38609 11.1269 2.02416 10.8668 1.57821 10.8668C1.13227 10.8668 0.770339 11.1269 0.770339 11.4501C0.770339 12.9745 2.4079 14 4.84687 14C7.28504 14 8.92099 12.9745 8.92099 11.4502C8.92099 10.3909 8.29165 9.83208 7.30827 9.37417ZM2.38528 6.73108C2.38528 5.698 3.62133 5.43317 4.25228 5.36433L5.00603 5.63383C6.86656 6.29708 7.30685 6.48317 7.30685 7.28525C7.30685 8.31483 6.07181 8.57325 5.40592 8.63917L4.68793 8.38308C2.82476 7.71983 2.38528 7.53375 2.38528 6.73108Z" fill="#A3B2B7"/>
</svg>
