<svg width="18" height="25" viewBox="0 0 18 25" fill="none" xmlns="http://www.w3.org/2000/svg">
<path d="M16.9781 9.16691L17.9098 7.31485C18.1011 6.9336 17.9794 6.46694 17.6255 6.23465L15.9094 5.10341L15.8071 3.02427C15.7857 2.59718 15.4492 2.25553 15.0309 2.23366L12.9896 2.1295L11.8789 0.381601C11.6508 0.0222186 11.1937 -0.103806 10.8184 0.092031L8.99997 1.04202L7.1816 0.092031C6.80524 -0.102759 6.3491 0.0222399 6.12104 0.381601L5.01037 2.1295L2.96903 2.23366C2.54971 2.25554 2.21427 2.5972 2.1928 3.02427L2.09053 5.10341L0.37442 6.23465C0.0205519 6.46798 -0.101139 6.93464 0.0901161 7.31485L1.02181 9.16691L0.0901161 11.019C-0.101131 11.4002 0.0205729 11.8669 0.37442 12.0992L2.09053 13.2304L2.1928 15.3096C2.21428 15.7366 2.55076 16.0783 2.96903 16.1002L4.09096 16.1574V24.1667C4.09096 24.4865 4.27198 24.7792 4.55424 24.9177C4.83854 25.0562 5.17502 25.0167 5.42048 24.8167L9 21.8999L12.5795 24.8167C12.7278 24.9375 12.9088 25 13.0909 25C13.2116 25 13.3333 24.9729 13.4458 24.9177C13.728 24.7792 13.909 24.4865 13.909 24.1667V16.1574L15.031 16.1002C15.4503 16.0793 15.7857 15.7366 15.8072 15.3096L15.9095 13.2304L17.6256 12.0992C17.9794 11.8669 18.1011 11.4002 17.9099 11.019L16.9781 9.16691ZM9.5112 20.1825C9.21257 19.9388 8.78712 19.9388 8.4885 20.1825L5.72714 22.4325V17.3315L6.12089 17.9513C6.34793 18.3106 6.80509 18.4356 7.18144 18.2408L8.99982 17.2919L10.8182 18.2419C10.9379 18.3033 11.0657 18.3335 11.1905 18.3335C11.4605 18.3335 11.7223 18.1981 11.8788 17.9523L12.2725 17.3325V22.4335L9.5112 20.1825ZM15.3305 9.54717L16.116 11.1086L14.6689 12.0628C14.4469 12.2086 14.3099 12.4534 14.2956 12.7211L14.2107 14.4732L12.4895 14.5607C12.2266 14.5742 11.9863 14.7159 11.8431 14.9409L10.9063 16.4148L9.37324 15.6138C9.25563 15.5534 9.12779 15.5221 8.99995 15.5221C8.8721 15.5221 8.74427 15.5534 8.62665 15.6138L7.0936 16.4148L6.1568 14.9409C6.01362 14.7159 5.7733 14.5742 5.51044 14.5607L3.78922 14.4732L3.70433 12.7211C3.69001 12.4534 3.55195 12.2086 3.33104 12.0628L1.88391 11.1086L2.66935 9.54717C2.79003 9.30863 2.79003 9.02531 2.66935 8.78675L1.88391 7.22531L3.33104 6.27116C3.55297 6.12533 3.69001 5.88055 3.70433 5.61282L3.78922 3.86076L5.51044 3.77326C5.77327 3.75972 6.01362 3.61806 6.1568 3.39306L7.0936 1.91913L8.62665 2.72016C8.86188 2.84203 9.138 2.84203 9.37324 2.72016L10.9063 1.91913L11.8431 3.39306C11.9863 3.61805 12.2266 3.75972 12.4895 3.77326L14.2107 3.86076L14.2956 5.61282C14.3099 5.88052 14.4479 6.12532 14.6689 6.27116L16.116 7.22531L15.3305 8.78675C15.2099 9.02529 15.2099 9.30861 15.3305 9.54717Z" fill="#30BAEF"/>
</svg>
