<svg width="20" height="20" viewBox="0 0 20 20" fill="none" xmlns="http://www.w3.org/2000/svg">
<path fill-rule="evenodd" clip-rule="evenodd" d="M18.6667 10C18.6667 14.7865 14.7865 18.6667 10 18.6667C5.21353 18.6667 1.33333 14.7865 1.33333 10C1.33333 5.21353 5.21353 1.33333 10 1.33333C14.7865 1.33333 18.6667 5.21353 18.6667 10ZM20 10C20 15.5228 15.5228 20 10 20C4.47715 20 0 15.5228 0 10C0 4.47715 4.47715 0 10 0C15.5228 0 20 4.47715 20 10ZM9.74177 11.1119C9.64782 11.3948 9.59709 11.7801 9.58957 12.2679H10.6324C10.6324 11.6448 10.7695 11.1673 11.0439 10.8353L11.6583 10.1712C12.267 9.47439 12.5714 8.76731 12.5714 8.04998C12.5714 7.32446 12.3723 6.75469 11.9739 6.34069C11.5794 5.92259 11.027 5.71354 10.3167 5.71354C9.63279 5.71354 9.07663 5.91849 8.64823 6.32839C8.22359 6.7342 8.00752 7.26912 8 7.93316H9.0428C9.0428 7.56015 9.1593 7.26297 9.39229 7.04162C9.62527 6.82028 9.93342 6.7096 10.3167 6.7096C10.7113 6.7096 11.0119 6.83257 11.2186 7.07851C11.4253 7.32036 11.5286 7.65648 11.5286 8.08687C11.5286 8.53366 11.3708 8.95177 11.0551 9.34117L10.3167 10.1712C10.0274 10.5155 9.83571 10.8291 9.74177 11.1119ZM9.69667 13.7558C9.59521 13.8788 9.54448 14.0325 9.54448 14.217C9.54448 14.4014 9.59521 14.5551 9.69667 14.6781C9.80189 14.797 9.95596 14.8564 10.1589 14.8564C10.3618 14.8564 10.5159 14.797 10.6211 14.6781C10.7263 14.5551 10.7789 14.4014 10.7789 14.217C10.7789 14.0325 10.7263 13.8788 10.6211 13.7558C10.5159 13.6287 10.3618 13.5652 10.1589 13.5652C9.95596 13.5652 9.80189 13.6287 9.69667 13.7558Z" fill="#1C1E22"/>
</svg>
