<svg width="33" height="21" viewBox="0 0 33 21" fill="none" xmlns="http://www.w3.org/2000/svg">
<path fill-rule="evenodd" clip-rule="evenodd" d="M14.4556 14.3182C14.4556 10.628 11.2268 7.63636 7.2439 7.63636C6.85936 7.63636 6.48197 7.66458 6.11372 7.71828C6.42209 7.33037 6.76394 6.96108 7.1385 6.61399C9.08437 4.81109 11.6716 3.81818 14.4234 3.81818V0C6.45757 0 0 5.98309 0 13.3636L0.0321951 14.3182C0.0321951 18.0084 3.26098 21 7.2439 21C11.2268 21 14.4556 18.0084 14.4556 14.3182ZM33 14.3182C33 10.628 29.7712 7.63636 25.7883 7.63636C25.4037 7.63636 25.0263 7.66458 24.6581 7.71828C24.9664 7.33037 25.3083 6.96108 25.6829 6.61399C27.6287 4.81109 30.216 3.81818 32.9678 3.81818V0C25.0019 0 18.5444 5.98309 18.5444 13.3636L18.5766 14.3182C18.5766 18.0084 21.8054 21 25.7883 21C29.7712 21 33 18.0084 33 14.3182Z" fill="#5B7284"/>
</svg>
