<svg width="11" height="12" viewBox="0 0 11 12" fill="none" xmlns="http://www.w3.org/2000/svg">
<path d="M5.5 0.71875C2.64258 0.71875 0.34375 3.01758 0.34375 5.875C0.34375 8.73242 2.64258 11.0312 5.5 11.0312C8.35742 11.0312 10.6562 8.73242 10.6562 5.875C10.6562 3.01758 8.35742 0.71875 5.5 0.71875ZM5.5 10C3.22266 10 1.375 8.15234 1.375 5.875C1.375 3.59766 3.22266 1.75 5.5 1.75C7.77734 1.75 9.625 3.59766 9.625 5.875C9.625 8.15234 7.77734 10 5.5 10ZM6.01562 5.96094V3.64062C6.01562 3.36133 5.7793 3.125 5.5 3.125C5.2207 3.125 4.98438 3.36133 4.98438 3.64062V6.21875C4.98438 6.39062 5.07031 6.54102 5.19922 6.62695L6.57422 7.6582C6.66016 7.72266 6.76758 7.76562 6.875 7.76562C7.02539 7.76562 7.17578 7.70117 7.2832 7.55078C7.45508 7.33594 7.41211 7.01367 7.17578 6.8418L6.01562 5.96094Z" fill="#5B7284"/>
</svg>
