<svg width="60" height="60" viewBox="0 0 60 60" fill="none" xmlns="http://www.w3.org/2000/svg">
<path d="M49.4776 33.3381L51.266 31.5395C52.0841 30.7497 52.5696 29.6745 52.6225 28.5355C52.6754 27.3965 52.2916 26.2805 51.5503 25.4175C50.9658 24.763 50.1965 24.3033 49.3453 24.0999L49.7081 23.7363C50.5269 22.948 51.014 21.8744 51.0692 20.7362C51.1244 19.598 50.7434 18.4818 50.0048 17.6173C49.612 17.1773 49.134 16.8225 48.6001 16.5746C48.0662 16.3267 47.4876 16.1908 46.8997 16.1754C46.3117 16.1599 45.7268 16.2651 45.1808 16.4847C44.6347 16.7042 44.1389 17.0334 43.7237 17.4521L43.6297 17.5456C43.0984 17.0564 42.4525 16.7104 41.7524 16.5398L42.1162 16.174C42.935 15.386 43.4218 14.3122 43.476 13.174C43.5302 12.0359 43.1479 10.9202 42.4078 10.0571C42.0158 9.61524 41.5375 9.25915 41.0028 9.01103C40.468 8.76292 39.8881 8.62809 39.2993 8.61494C38.7127 8.60458 38.1299 8.71181 37.585 8.93035C37.0401 9.14889 36.544 9.47437 36.1256 9.88778L34.0674 11.9565C33.8411 11.0061 33.3031 10.1598 32.5401 9.554C31.7771 8.94822 30.8334 8.61818 29.8611 8.61702C29.2931 8.61517 28.7304 8.72673 28.2057 8.94524C27.6809 9.16374 27.2046 9.48482 26.8043 9.88986L18.9478 17.7867C18.8004 16.5077 18.2045 15.3233 17.2669 14.4461C16.6524 13.888 15.8475 13.5894 15.0196 13.6125C14.1918 13.6355 13.4046 13.9784 12.8217 14.5697L5.3787 22.0509C2.1043 25.2464 0.182125 29.588 0.0122908 34.1721C-0.157544 38.7562 1.43805 43.2295 4.46693 46.6609C5.90383 48.2523 7.61851 49.5659 9.52612 50.5365C10.2054 51.8733 11.0569 53.1142 12.0588 54.2272C13.5155 55.8314 15.2505 57.1556 17.179 58.1351C20.4684 59.7927 24.1939 60.3662 27.826 59.7739C31.4582 59.1817 34.8123 57.4539 37.4116 54.8361L51.3911 40.7746C52.2108 39.9891 52.6987 38.9168 52.7537 37.7797C52.8088 36.6427 52.4267 35.5279 51.6867 34.6661C51.1027 34.0069 50.3317 33.5434 49.4776 33.3381ZM46.8415 18.2532C47.1492 18.2597 47.4523 18.3299 47.7317 18.4595C48.0112 18.5891 48.261 18.7754 48.4656 19.0065C48.8436 19.4781 49.0309 20.0756 48.9903 20.6798C48.9497 21.2841 48.6841 21.8508 48.2464 22.267L45.2723 25.2554L43.7578 26.7817C43.3899 26.443 42.9659 26.1715 42.5049 25.9796C42.3056 25.8984 42.1003 25.8328 41.8909 25.7832L43.6741 23.9898C43.8686 23.7899 44.0454 23.5733 44.2024 23.3425C44.2282 23.3051 44.2509 23.2666 44.2757 23.2292C44.3998 23.0386 44.51 22.8393 44.6055 22.6328C44.6262 22.5871 44.6489 22.5445 44.6686 22.4988C44.8674 22.0285 44.9862 21.528 45.0201 21.0181C45.0252 20.9412 45.0252 20.8664 45.0263 20.7895C45.0287 20.616 45.0211 20.4426 45.0035 20.27C44.9942 20.1817 44.987 20.0954 44.9725 20.0081C44.9416 19.8257 44.8988 19.6456 44.8443 19.4689C44.8288 19.4138 44.8236 19.3567 44.805 19.3026L45.1886 18.9171C45.4012 18.6946 45.6587 18.5203 45.9437 18.4058C46.2288 18.2913 46.5349 18.2393 46.8415 18.2532ZM5.99792 45.2623C3.32774 42.2253 1.92541 38.2704 2.08273 34.2205C2.24004 30.1706 3.94487 26.3376 6.8425 23.5191L14.2855 16.0379C14.5099 15.8124 14.8138 15.685 15.1311 15.6836C15.3988 15.6794 15.6579 15.7787 15.8548 15.961C16.1841 16.2704 16.448 16.6432 16.631 17.0572C16.8139 17.4713 16.9121 17.9181 16.9196 18.3711C16.9271 18.824 16.8439 19.2739 16.6748 19.6939C16.5057 20.1138 16.2542 20.4953 15.9354 20.8155L8.94308 27.8436C8.84435 27.9395 8.7656 28.0541 8.71142 28.1809C8.65724 28.3077 8.62872 28.444 8.62753 28.582C8.62634 28.72 8.65249 28.8568 8.70447 28.9845C8.75645 29.1122 8.83321 29.2282 8.93027 29.3257C9.02733 29.4233 9.14275 29.5004 9.2698 29.5527C9.39684 29.6049 9.53297 29.6312 9.67023 29.63C9.80749 29.6288 9.94314 29.6002 10.0693 29.5457C10.1954 29.4913 10.3095 29.4121 10.4048 29.3129L17.3971 22.2847L28.2639 11.3591C28.4724 11.1481 28.7205 10.9808 28.9938 10.8668C29.267 10.7528 29.5601 10.6945 29.8559 10.6951C30.3035 10.6954 30.741 10.8289 31.1131 11.079C31.4852 11.329 31.7752 11.6843 31.9464 12.1C32.1177 12.5157 32.1625 12.973 32.0752 13.4143C31.988 13.8555 31.7726 14.2609 31.4562 14.5791L19.812 26.2851C19.7132 26.3809 19.6345 26.4956 19.5803 26.6223C19.5261 26.7491 19.4976 26.8854 19.4964 27.0234C19.4952 27.1614 19.5214 27.2982 19.5734 27.4259C19.6253 27.5536 19.7021 27.6696 19.7992 27.7672C19.8962 27.8647 20.0116 27.9419 20.1387 27.9941C20.2657 28.0464 20.4019 28.0726 20.5391 28.0714C20.6764 28.0703 20.812 28.0416 20.9381 27.9871C21.0643 27.9327 21.1783 27.8535 21.2737 27.7543L32.9189 16.0483L37.5874 11.357C37.8006 11.1349 38.0583 10.9608 38.3434 10.8461C38.6285 10.7315 38.9346 10.679 39.2414 10.692C39.5493 10.6991 39.8525 10.7699 40.1321 10.8999C40.4116 11.0298 40.6616 11.2162 40.8664 11.4474C41.245 11.9181 41.4329 12.515 41.3926 13.1188C41.3524 13.7227 41.0869 14.2891 40.6493 14.7048L37.6794 17.6952L24.4732 30.9701C24.3744 31.066 24.2957 31.1806 24.2415 31.3074C24.1873 31.4342 24.1588 31.5705 24.1576 31.7085C24.1564 31.8465 24.1826 31.9833 24.2346 32.111C24.2865 32.2387 24.3633 32.3547 24.4604 32.4522C24.5574 32.5498 24.6728 32.627 24.7999 32.6792C24.9269 32.7314 25.063 32.7577 25.2003 32.7565C25.3376 32.7553 25.4732 32.7267 25.5993 32.6722C25.7255 32.6178 25.8395 32.5386 25.9349 32.4394L39.1411 19.1644C39.3547 18.9429 39.6124 18.7692 39.8975 18.6548C40.1825 18.5403 40.4884 18.4878 40.7951 18.5005C41.1031 18.5074 41.4065 18.5779 41.6862 18.7076C41.966 18.8374 42.2162 19.0237 42.4212 19.2548C42.5148 19.36 42.597 19.475 42.6662 19.5977C42.6941 19.6455 42.7117 19.7016 42.7355 19.7473C42.7744 19.8228 42.8089 19.9006 42.8388 19.9801C42.8512 20.0165 42.8574 20.0549 42.8678 20.0923C42.8967 20.1924 42.9185 20.2945 42.9329 20.3978C42.9329 20.429 42.9381 20.4612 42.9412 20.4923C42.9522 20.6045 42.955 20.7174 42.9494 20.83C42.9494 20.8581 42.9494 20.8872 42.9422 20.9163C42.9325 21.0334 42.9145 21.1498 42.8885 21.2644L42.8699 21.3412C42.8375 21.4637 42.796 21.5835 42.7458 21.6997C42.7386 21.7174 42.7324 21.7361 42.7241 21.7538C42.598 22.0342 42.4229 22.2897 42.2072 22.5081L37.8158 26.923L29.1385 35.6438C28.9445 35.8386 28.8355 36.1029 28.8354 36.3786C28.8353 36.6542 28.9441 36.9186 29.138 37.1135C29.3318 37.3085 29.5948 37.4181 29.869 37.4182C30.1432 37.4183 30.4062 37.3089 30.6002 37.1141L39.2589 28.4099C39.2665 28.406 39.2738 28.4015 39.2807 28.3964C39.4933 28.1835 39.7455 28.0148 40.0229 27.8997C40.2874 27.799 40.5671 27.7449 40.8499 27.7397C40.8799 27.7397 40.9099 27.7325 40.9398 27.7335C41.093 27.7376 41.2454 27.7571 41.3947 27.7917C41.8423 27.8978 42.2467 28.1393 42.5535 28.4837C42.567 28.4982 42.5752 28.5138 42.5876 28.5284C42.8545 28.8458 43.0231 29.2348 43.0725 29.6474C43.0725 29.6661 43.0725 29.6859 43.0725 29.7056C43.084 29.8223 43.0868 29.9397 43.0807 30.0568C43.0807 30.0942 43.0756 30.1316 43.0725 30.169C43.0626 30.2668 43.0471 30.364 43.0259 30.46C43.0146 30.5119 43.0032 30.5639 42.9887 30.6148C42.9659 30.6947 42.939 30.7735 42.9081 30.8507C42.8843 30.912 42.8616 30.9722 42.8326 31.0315C42.8037 31.0907 42.7623 31.1613 42.7293 31.2257C42.6962 31.2902 42.6579 31.3536 42.6145 31.4138C42.5711 31.4741 42.5111 31.5344 42.4656 31.5946C42.4202 31.6549 42.384 31.6985 42.3364 31.7474L28.3549 45.8026C26.098 48.0648 23.201 49.5712 20.0601 50.1157C16.9191 50.6603 13.6874 50.2165 10.8069 48.845C10.7098 48.7982 10.6095 48.7608 10.5134 48.712C8.80912 47.8523 7.27813 46.6827 5.99792 45.2623ZM49.9324 39.3054L35.9499 53.3659C33.6579 55.6739 30.7006 57.1973 27.4981 57.7195C24.2956 58.2418 21.0108 57.7364 18.1104 56.2752C16.4073 55.4105 14.8754 54.2407 13.5898 52.8235C13.2866 52.4896 13.0002 52.1433 12.7308 51.7844C14.2616 52.2174 15.8441 52.438 17.4343 52.4401C17.7072 52.4401 17.9781 52.4131 18.25 52.3996C18.3533 52.3996 18.4567 52.3912 18.5518 52.385C18.893 52.3632 19.232 52.3341 19.5701 52.2925C19.6042 52.2925 19.6362 52.2821 19.6734 52.2769C20.3206 52.1924 20.9626 52.0714 21.5962 51.9143C21.7172 51.8852 21.8371 51.8561 21.957 51.825C22.2589 51.7429 22.5587 51.6556 22.8564 51.5579C23.0083 51.5091 23.1582 51.454 23.3081 51.3979C23.7537 51.2379 24.192 51.0623 24.6241 50.8659C24.8391 50.7693 25.0541 50.6706 25.2661 50.5635C25.478 50.4565 25.6951 50.3443 25.9059 50.2259C26.2161 50.0565 26.5138 49.8747 26.8115 49.6855C26.9945 49.5681 27.1754 49.4486 27.3553 49.324C27.675 49.1037 27.9879 48.8716 28.2939 48.6278C28.4293 48.5239 28.5617 48.4127 28.694 48.3015C29.0506 48.0002 29.4 47.6864 29.736 47.3529C29.7639 47.3259 29.7949 47.303 29.8218 47.2749L43.8023 33.2238C43.8612 33.1646 43.9057 33.095 43.9584 33.0337C44.2132 32.7698 44.4256 32.4676 44.5879 32.138C44.62 32.0788 44.6572 32.0227 44.6862 31.9624C44.778 31.7711 44.8564 31.5736 44.9208 31.3712C44.9312 31.34 44.9425 31.3089 44.9529 31.2767C45.0181 31.0638 45.0679 30.8464 45.1017 30.6262C45.1017 30.5992 45.109 30.5722 45.1131 30.5441C45.1426 30.3321 45.1568 30.1182 45.1555 29.9041C45.1555 29.8573 45.1555 29.8116 45.1493 29.7659C45.1444 29.5727 45.1264 29.38 45.0955 29.1892C45.079 29.0853 45.049 28.9928 45.0252 28.8952C44.9952 28.7726 44.9777 28.6479 44.9363 28.5294L46.7371 26.7194C46.9509 26.4983 47.2088 26.3252 47.4939 26.2113C47.7789 26.0974 48.0847 26.0454 48.3911 26.0585C48.6986 26.065 49.0014 26.1349 49.281 26.2637C49.5605 26.3926 49.8107 26.5777 50.0162 26.8077C50.3959 27.2776 50.5855 27.874 50.5472 28.4781C50.5089 29.0822 50.2455 29.6496 49.8094 30.0672L45.4118 34.4905L36.7283 43.2143C36.6296 43.3102 36.5508 43.4248 36.4967 43.5516C36.4425 43.6784 36.414 43.8147 36.4128 43.9527C36.4116 44.0906 36.4377 44.2275 36.4897 44.3552C36.5417 44.4829 36.6184 44.5989 36.7155 44.6964C36.8126 44.794 36.928 44.8711 37.055 44.9234C37.1821 44.9756 37.3182 45.0019 37.4555 45.0007C37.5927 44.9995 37.7284 44.9709 37.8545 44.9164C37.9806 44.8619 38.0947 44.7828 38.19 44.6836L46.8674 35.9618C47.0803 35.7394 47.338 35.5653 47.6232 35.4512C47.9085 35.337 48.2147 35.2854 48.5214 35.2999C48.8299 35.3074 49.1336 35.3788 49.4136 35.5095C49.6935 35.6401 49.9437 35.8273 50.1485 36.0594C50.5265 36.5283 50.714 37.1236 50.6733 37.7257C50.6327 38.3278 50.3669 38.8921 49.9294 39.3054H49.9324Z" fill="#00A176"/>
<path d="M52.0204 8.02074C52.2143 8.21553 52.4772 8.32496 52.7513 8.32496C53.0254 8.32496 53.2883 8.21553 53.4822 8.02074L59.6847 1.78643C59.7834 1.69058 59.8622 1.57593 59.9164 1.44916C59.9705 1.32239 59.9991 1.18605 60.0002 1.04808C60.0014 0.910116 59.9753 0.773294 59.9233 0.645598C59.8713 0.517903 59.7946 0.401891 59.6975 0.304331C59.6004 0.206772 59.485 0.129619 59.358 0.0773746C59.2309 0.0251302 59.0948 -0.00115964 58.9575 3.92312e-05C58.8203 0.00123811 58.6846 0.0299017 58.5585 0.0843574C58.4324 0.138813 58.3183 0.21797 58.223 0.31721L52.0204 6.55152C51.8266 6.74637 51.7178 7.01061 51.7178 7.28613C51.7178 7.56165 51.8266 7.82589 52.0204 8.02074Z" fill="#00A176"/>
<path d="M59.9143 8.97922C59.864 8.85243 59.7893 8.73685 59.6945 8.63908C59.5997 8.54131 59.4867 8.46328 59.3619 8.40944C59.2371 8.35559 59.103 8.32699 58.9672 8.32528C58.8314 8.32356 58.6966 8.34876 58.5704 8.39943L53.4017 10.4775C53.1783 10.567 52.9929 10.7319 52.8775 10.9439C52.762 11.1559 52.7237 11.4017 52.7691 11.6391C52.8145 11.8764 52.9408 12.0904 53.1263 12.2442C53.3117 12.398 53.5447 12.4821 53.7852 12.4819C53.9166 12.482 54.0469 12.4566 54.1687 12.4071L59.3375 10.3289C59.592 10.2268 59.7957 10.0272 59.9039 9.77411C60.0121 9.52101 60.0158 9.2351 59.9143 8.97922Z" fill="#00A176"/>
<path d="M48.1652 7.18093C48.2874 7.24063 48.42 7.27554 48.5556 7.28367C48.6912 7.2918 48.8271 7.27298 48.9555 7.22831C49.0838 7.18363 49.2022 7.11396 49.3037 7.02328C49.4053 6.93261 49.488 6.8227 49.5473 6.69985L52.0583 1.50459C52.1176 1.38179 52.1522 1.24845 52.1602 1.1122C52.1682 0.975954 52.1494 0.839456 52.1049 0.710504C52.0604 0.581552 51.9911 0.462671 51.9009 0.360649C51.8107 0.258627 51.7013 0.175461 51.5792 0.115901C51.457 0.05634 51.3243 0.0215509 51.1888 0.0135197C51.0532 0.00548845 50.9174 0.0243723 50.7891 0.069093C50.53 0.159411 50.3172 0.349485 50.1976 0.597501L47.6866 5.79172C47.6272 5.91451 47.5924 6.04787 47.5844 6.18416C47.5763 6.32046 47.595 6.45701 47.6394 6.58603C47.6839 6.71505 47.7532 6.834 47.8434 6.93607C47.9336 7.03815 48.043 7.12136 48.1652 7.18093Z" fill="#00A176"/>
</svg>
