<svg width="280" height="250" viewBox="0 0 280 250" fill="none" xmlns="http://www.w3.org/2000/svg">
<g clip-path="url(#clip0)">
<path d="M2.47356 205.772C5.01256 221.394 16.4522 233.491 28.6309 244.062C30.3314 245.539 32.0359 246.986 33.7444 248.405C33.7563 248.412 33.7678 248.425 33.7799 248.432C33.8621 248.5 33.9445 248.568 34.0206 248.636C34.3733 248.928 34.7261 249.221 35.0759 249.51L34.8564 249.578L34.1727 249.788C34.4074 249.724 34.6389 249.663 34.8736 249.598C34.9435 249.578 35.0163 249.562 35.0861 249.542C43.1608 247.36 51.3998 244.967 58.0008 239.857C64.8492 234.55 69.5655 225.502 67.2037 217.166C66.8928 216.073 66.461 215.019 65.9164 214.023C65.6937 213.606 65.4483 213.203 65.1901 212.805C63.6295 210.353 61.444 208.362 58.8584 207.035C56.2728 205.708 53.3804 205.093 50.4787 205.255C47.577 205.416 44.7706 206.348 42.3481 207.953C39.9257 209.559 37.9746 211.781 36.6955 214.39C36.8107 205.205 45.2007 198.507 53.07 193.766C60.9422 189.029 69.8554 183.911 72.3303 175.06C73.7102 170.136 72.5495 165.063 69.8399 160.778C69.7557 160.648 69.6717 160.518 69.5842 160.39C66.2612 155.379 61.1701 151.806 55.3278 150.385C44.4264 147.911 33.0017 152.467 24.06 159.179C9.6691 169.978 -0.412445 188.009 2.47356 205.772Z" fill="#DCDFE1"/>
<path d="M25.5933 188.513C23.0788 191.555 21.0212 194.947 19.4857 198.583C18.1654 201.839 17.3392 205.273 17.0346 208.773C16.3723 215.963 17.7362 223.23 20.4562 229.884C22.5722 234.936 25.3181 239.699 28.6288 244.062C30.3292 245.538 32.0337 246.986 33.7423 248.405C33.7542 248.412 33.7657 248.425 33.7777 248.432C33.8599 248.5 33.9424 248.568 34.0184 248.636C34.3711 248.928 34.7239 249.221 35.0738 249.51L34.8543 249.578L34.1706 249.788C34.4053 249.724 34.6368 249.662 34.8714 249.598C34.9414 249.578 35.0141 249.562 35.0839 249.541C35.0734 243.799 36.4393 238.138 39.0672 233.033C41.6951 227.927 45.5085 223.526 50.1877 220.198C54.8701 216.929 60.2588 214.813 65.9143 214.023C65.6916 213.606 65.4461 213.203 65.188 212.805C62.9997 213.144 60.8456 213.676 58.751 214.395C51.266 216.944 44.8004 221.834 40.3112 228.343C36.2739 234.258 34.008 241.203 33.7796 248.361C33.4976 248.036 33.2159 247.705 32.9435 247.378C27.7465 241.219 23.3006 234.331 20.6508 226.681C18.334 220.193 17.6481 213.235 18.6534 206.42C19.8359 199 23.6357 192.451 28.6586 186.956C34.0384 181.075 40.498 176.077 47.2581 171.887C54.1832 167.585 61.6087 164.148 69.3688 161.651C69.544 161.593 69.6904 161.47 69.7776 161.308C69.8649 161.146 69.8865 160.956 69.8378 160.778C69.807 160.62 69.7151 160.481 69.5821 160.39C69.5129 160.35 69.4355 160.326 69.3556 160.319C69.2758 160.313 69.1956 160.325 69.121 160.354C68.1628 160.663 67.2103 160.979 66.2627 161.313C58.3705 164.101 50.8551 167.858 43.8892 172.498C37.1622 176.968 30.7034 182.222 25.5933 188.513Z" fill="white"/>
<path d="M162.85 152.838C163.626 152.837 164.373 152.541 164.939 152.01C165.505 151.479 165.848 150.752 165.899 149.978L166.353 143.045C166.406 142.235 166.135 141.437 165.6 140.827C165.065 140.217 164.309 139.844 163.499 139.791L109.181 136.234C108.324 136.177 107.465 136.29 106.652 136.566C105.839 136.841 105.089 137.275 104.443 137.84C103.798 138.406 103.27 139.094 102.89 139.863C102.511 140.633 102.286 141.47 102.23 142.327C102.174 143.183 102.287 144.042 102.563 144.855C102.84 145.668 103.273 146.418 103.839 147.063C104.405 147.709 105.093 148.236 105.863 148.615C106.633 148.995 107.47 149.218 108.327 149.274L162.645 152.831C162.714 152.835 162.782 152.838 162.85 152.838Z" fill="#30BAEF"/>
<path d="M152.14 153.732C152.932 153.731 153.692 153.423 154.261 152.874C154.831 152.325 155.166 151.577 155.197 150.786L155.584 140.43C155.599 140.029 155.535 139.628 155.395 139.252C155.255 138.875 155.042 138.529 154.769 138.235C154.496 137.94 154.167 137.702 153.802 137.535C153.436 137.367 153.042 137.273 152.64 137.259L107.972 135.589C107.161 135.559 106.372 135.852 105.777 136.404C105.182 136.956 104.831 137.722 104.8 138.533L104.413 148.888C104.398 149.29 104.462 149.69 104.602 150.067C104.742 150.444 104.955 150.789 105.228 151.084C105.501 151.378 105.83 151.616 106.195 151.784C106.561 151.951 106.955 152.045 107.357 152.06L152.025 153.73C152.063 153.731 152.102 153.732 152.14 153.732Z" fill="#121212"/>
<path d="M99.7966 249.191H106.745C107.556 249.19 108.334 248.867 108.907 248.294C109.481 247.72 109.804 246.942 109.805 246.131V188.222C109.804 187.411 109.481 186.633 108.907 186.059C108.334 185.486 107.556 185.163 106.745 185.162H99.7966C98.9853 185.163 98.2076 185.486 97.634 186.059C97.0603 186.633 96.7376 187.411 96.7367 188.222V246.131C96.7376 246.942 97.0603 247.72 97.634 248.294C98.2076 248.867 98.9853 249.19 99.7966 249.191Z" fill="#121212"/>
<path d="M130.637 218.581L136.578 214.98C137.272 214.558 137.769 213.879 137.963 213.091C138.156 212.303 138.029 211.471 137.609 210.777L107.592 161.255C107.17 160.561 106.491 160.064 105.703 159.87C104.915 159.677 104.083 159.804 103.389 160.224L97.4471 163.826C96.7538 164.247 96.256 164.926 96.0628 165.714C95.8696 166.502 95.9968 167.334 96.4165 168.028L126.434 217.551C126.855 218.244 127.534 218.742 128.322 218.935C129.11 219.128 129.942 219.001 130.637 218.581Z" fill="#121212"/>
<path d="M110.349 124.728C97.0896 124.728 86.3407 113.979 86.3407 100.719C86.3407 87.4598 97.0896 76.7109 110.349 76.7109C123.609 76.7109 134.357 87.4598 134.357 100.719C134.357 113.979 123.609 124.728 110.349 124.728Z" fill="#30BAEF"/>
<path d="M123.345 108.917C124.118 108.663 124.827 108.247 125.425 107.696C125.821 107.303 126.126 106.828 126.32 106.305C126.513 105.781 126.589 105.221 126.544 104.665C126.519 104.269 126.402 103.884 126.204 103.54C126.005 103.196 125.729 102.902 125.399 102.683C124.54 102.132 123.392 102.13 122.223 102.646L122.267 93.273L121.326 93.2686L121.273 104.287L121.999 103.831C122.84 103.302 124.041 102.931 124.89 103.475C125.1 103.619 125.274 103.809 125.398 104.031C125.522 104.253 125.594 104.501 125.607 104.755C125.638 105.17 125.58 105.586 125.437 105.976C125.293 106.366 125.067 106.72 124.774 107.015C123.735 108.008 122.218 108.319 120.488 108.596L120.637 109.526C121.556 109.404 122.463 109.2 123.345 108.917Z" fill="#121212"/>
<path d="M131.97 92.7996L132.094 93.7329L127.067 94.3968L126.943 93.4635L131.97 92.7996Z" fill="#121212"/>
<path d="M116.103 94.8949L116.227 95.8281L111.199 96.492L111.076 95.5588L116.103 94.8949Z" fill="#121212"/>
<path d="M90.3011 203.759H130.786C131.847 203.758 132.864 203.336 133.614 202.586C134.364 201.836 134.786 200.818 134.787 199.758L126.312 134.764C126.305 133.708 125.88 132.697 125.131 131.953C124.382 131.209 123.368 130.792 122.312 130.792H107.945C102.206 130.799 96.7044 133.082 92.6465 137.139C88.5887 141.197 86.3061 146.699 86.2997 152.438V199.758C86.3008 200.818 86.7228 201.836 87.4729 202.586C88.2231 203.336 89.2402 203.758 90.3011 203.759Z" fill="#121212"/>
<path d="M100.495 200.295C100.741 200.832 101.137 201.286 101.635 201.603C102.134 201.92 102.713 202.087 103.304 202.082L110.252 202.022C110.654 202.018 111.051 201.936 111.421 201.779C111.791 201.622 112.126 201.394 112.408 201.107C112.689 200.82 112.912 200.481 113.062 200.109C113.213 199.736 113.289 199.337 113.285 198.936L112.813 144.503C112.806 143.645 112.629 142.796 112.294 142.007C111.959 141.217 111.471 140.501 110.859 139.899C110.247 139.298 109.523 138.823 108.727 138.501C107.932 138.18 107.081 138.018 106.223 138.026C105.365 138.033 104.517 138.209 103.727 138.545C102.937 138.88 102.221 139.367 101.62 139.979C101.018 140.591 100.543 141.316 100.222 142.111C99.9003 142.907 99.7386 143.758 99.7461 144.616L100.218 199.049C100.221 199.479 100.315 199.904 100.495 200.295Z" fill="#30BAEF"/>
<path d="M97.4269 185.763C97.6731 186.3 98.0692 186.754 98.5676 187.071C99.066 187.389 99.6454 187.555 100.236 187.55L112.104 187.447C112.915 187.439 113.69 187.11 114.258 186.531C114.827 185.953 115.143 185.172 115.137 184.361L114.749 139.664C114.746 139.262 114.663 138.865 114.506 138.495C114.349 138.125 114.121 137.79 113.834 137.508C113.548 137.226 113.208 137.004 112.836 136.853C112.463 136.703 112.065 136.627 111.663 136.63L99.7956 136.733C99.3938 136.737 98.9966 136.819 98.6267 136.976C98.2568 137.133 97.9214 137.362 97.6398 137.648C97.3581 137.935 97.1357 138.274 96.9851 138.647C96.8346 139.019 96.759 139.418 96.7625 139.82L97.1499 184.517C97.1532 184.947 97.2477 185.372 97.4269 185.763Z" fill="#121212"/>
<path d="M109.9 86.4801C113.11 83.8242 117.4 86.3361 121.029 85.9796C124.502 85.6385 127.297 82.5827 128.058 79.2943C128.947 75.4579 127.021 71.5608 124.12 69.1032C120.942 66.4115 116.676 65.5751 112.61 65.9846C107.95 66.4541 103.658 68.5404 99.7926 71.0891C96.0635 73.4709 92.6225 76.2762 89.5382 79.449C86.7746 82.3871 84.4135 85.907 83.6047 89.9159C82.8697 93.5592 83.3009 97.6201 85.4033 100.758C86.5192 102.367 88.0309 103.662 89.7927 104.517C91.6286 105.462 93.5931 106.15 95.369 107.213C98.0541 108.82 100.631 112.096 99.7171 115.437C99.5209 116.167 99.1482 116.837 98.632 117.389C98.0117 118.052 96.9329 117.14 97.5548 116.475C98.6471 115.308 98.635 113.724 98.0919 112.295C97.4444 110.684 96.269 109.342 94.7585 108.486C92.8995 107.376 90.8372 106.674 88.9296 105.658C87.1029 104.729 85.5277 103.372 84.3381 101.704C82.0935 98.456 81.4831 94.2733 82.0793 90.426C82.7244 86.2627 84.9411 82.5105 87.6899 79.383C90.6814 75.9795 94.3309 73.1197 98.0523 70.559C102.045 67.8113 106.443 65.5077 111.276 64.7362C115.465 64.0673 119.981 64.6139 123.589 66.9584C126.956 69.1468 129.5 72.8497 129.682 76.9367C129.74 78.7958 129.302 80.6367 128.412 82.2701C127.523 83.9035 126.214 85.2703 124.62 86.2299C122.986 87.1661 121.1 87.5656 119.226 87.372C117.223 87.2055 115.227 86.5532 113.205 86.6853C112.291 86.7234 111.413 87.0586 110.707 87.6401C110.005 88.2203 109.205 87.0556 109.9 86.4801V86.4801Z" fill="#121212"/>
<path d="M138.13 211.614C138.121 211.56 138.111 211.507 138.1 211.454C138.016 211.061 137.855 210.689 137.626 210.358C137.398 210.027 137.106 209.746 136.767 209.529L130.928 205.763C130.246 205.324 129.418 205.173 128.625 205.344C127.832 205.515 127.139 205.994 126.698 206.675L108.687 234.6C108.247 235.282 108.096 236.111 108.268 236.904C108.439 237.697 108.918 238.39 109.6 238.83L115.439 242.596C116.121 243.035 116.95 243.185 117.742 243.014C118.535 242.843 119.228 242.365 119.669 241.683L137.68 213.759C138.092 213.124 138.252 212.36 138.13 211.614Z" fill="#121212"/>
<path d="M159.998 27.574C160.446 26.5088 161.197 25.5986 162.158 24.9559C163.118 24.3132 164.246 23.9662 165.402 23.958H273.279C274.83 23.9588 276.317 24.5752 277.413 25.6717C278.51 26.7682 279.126 28.2551 279.127 29.8058V166.28C279.126 167.831 278.51 169.318 277.413 170.414C276.317 171.511 274.83 172.127 273.279 172.128H165.398C163.848 172.126 162.362 171.509 161.265 170.413C160.169 169.317 159.552 167.831 159.55 166.28V29.8058C159.548 29.0397 159.699 28.2809 159.994 27.574H159.998ZM160.853 166.28C160.854 167.486 161.334 168.643 162.187 169.496C163.04 170.348 164.196 170.828 165.402 170.83H273.279C274.485 170.829 275.642 170.35 276.495 169.497C277.348 168.644 277.828 167.487 277.828 166.281V29.8066C277.827 28.6006 277.347 27.4444 276.494 26.5916C275.641 25.7389 274.485 25.2591 273.279 25.2574H165.398C164.49 25.2609 163.603 25.5349 162.851 26.0446C162.099 26.5543 161.515 27.2765 161.176 28.1191C161.109 28.287 161.052 28.4583 161.005 28.6323C160.901 29.0152 160.849 29.41 160.849 29.8066L160.853 166.28Z" fill="#1E252B"/>
<path d="M182.51 56.1792H215.004C215.693 56.1792 216.355 55.9053 216.842 55.4178C217.33 54.9303 217.604 54.2691 217.604 53.5796C217.604 52.8901 217.33 52.2289 216.842 51.7414C216.355 51.2539 215.693 50.98 215.004 50.98H182.51C181.82 50.98 181.159 51.2539 180.672 51.7414C180.184 52.2289 179.91 52.8901 179.91 53.5796C179.91 54.2691 180.184 54.9303 180.672 55.4178C181.159 55.9053 181.82 56.1792 182.51 56.1792Z" fill="#1E252B"/>
<path d="M182.51 69.8267H215.004C215.346 69.8271 215.684 69.7602 216 69.6298C216.316 69.4994 216.603 69.3079 216.845 69.0665C217.087 68.8251 217.278 68.5383 217.409 68.2227C217.54 67.9071 217.607 67.5687 217.607 67.2271C217.607 66.8854 217.54 66.5471 217.409 66.2314C217.278 65.9158 217.087 65.6291 216.845 65.3876C216.603 65.1462 216.316 64.9548 216 64.8243C215.684 64.6939 215.346 64.627 215.004 64.6274H182.51C182.169 64.627 181.83 64.6939 181.514 64.8243C181.198 64.9548 180.911 65.1462 180.67 65.3876C180.428 65.6291 180.236 65.9158 180.105 66.2314C179.974 66.5471 179.907 66.8854 179.907 67.2271C179.907 67.5687 179.974 67.9071 180.105 68.2227C180.236 68.5383 180.428 68.8251 180.67 69.0665C180.911 69.3079 181.198 69.4994 181.514 69.6298C181.83 69.7602 182.169 69.8271 182.51 69.8267Z" fill="#1E252B"/>
<path d="M231.676 77.5977H255.423C256.198 77.5969 256.942 77.2885 257.49 76.7402C258.038 76.1919 258.347 75.4485 258.348 74.673V46.6502C258.347 45.8748 258.038 45.1314 257.49 44.5831C256.942 44.0348 256.198 43.7264 255.423 43.7256H231.676C230.901 43.7264 230.158 44.0348 229.609 44.5831C229.061 45.1314 228.753 45.8748 228.752 46.6502V74.673C228.753 75.4485 229.061 76.1919 229.609 76.7402C230.158 77.2885 230.901 77.5969 231.676 77.5977Z" fill="#30BAEF"/>
<path d="M182.735 97.772H256.172C256.861 97.772 257.523 97.4981 258.01 97.0106C258.498 96.5231 258.771 95.8618 258.771 95.1724C258.771 94.4829 258.498 93.8217 258.01 93.3342C257.523 92.8466 256.861 92.5728 256.172 92.5728H182.735C182.046 92.5728 181.385 92.8466 180.897 93.3342C180.41 93.8217 180.136 94.4829 180.136 95.1724C180.136 95.8618 180.41 96.5231 180.897 97.0106C181.385 97.4981 182.046 97.772 182.735 97.772Z" fill="#A3B2B7"/>
<path d="M182.735 111.419H256.172C256.861 111.419 257.523 111.146 258.01 110.658C258.498 110.171 258.771 109.509 258.771 108.82C258.771 108.13 258.498 107.469 258.01 106.982C257.523 106.494 256.861 106.22 256.172 106.22H182.735C182.046 106.22 181.385 106.494 180.897 106.982C180.41 107.469 180.136 108.13 180.136 108.82C180.136 109.509 180.41 110.171 180.897 110.658C181.385 111.146 182.046 111.419 182.735 111.419Z" fill="#A3B2B7"/>
<path d="M182.735 125.067H256.171C256.86 125.066 257.521 124.792 258.007 124.304C258.494 123.817 258.768 123.156 258.768 122.467C258.768 121.778 258.494 121.118 258.007 120.63C257.521 120.143 256.86 119.869 256.171 119.868H182.735C182.393 119.867 182.055 119.934 181.739 120.065C181.423 120.195 181.136 120.386 180.894 120.628C180.653 120.869 180.461 121.156 180.33 121.472C180.199 121.787 180.132 122.126 180.132 122.467C180.132 122.809 180.199 123.147 180.33 123.463C180.461 123.779 180.653 124.065 180.894 124.307C181.136 124.548 181.423 124.74 181.739 124.87C182.055 125.001 182.393 125.067 182.735 125.067Z" fill="#A3B2B7"/>
<path d="M182.735 138.714H256.172C256.861 138.714 257.523 138.44 258.01 137.952C258.498 137.465 258.771 136.804 258.771 136.114C258.771 135.425 258.498 134.764 258.01 134.276C257.523 133.789 256.861 133.515 256.172 133.515H182.735C182.046 133.515 181.385 133.789 180.897 134.276C180.41 134.764 180.136 135.425 180.136 136.114C180.136 136.804 180.41 137.465 180.897 137.952C181.385 138.44 182.046 138.714 182.735 138.714Z" fill="#A3B2B7"/>
<path d="M182.735 152.362H256.172C256.861 152.362 257.523 152.088 258.01 151.6C258.498 151.113 258.771 150.452 258.771 149.762C258.771 149.073 258.498 148.412 258.01 147.924C257.523 147.436 256.861 147.163 256.172 147.163H182.735C182.046 147.163 181.385 147.436 180.897 147.924C180.41 148.412 180.136 149.073 180.136 149.762C180.136 150.452 180.41 151.113 180.897 151.6C181.385 152.088 182.046 152.362 182.735 152.362Z" fill="#A3B2B7"/>
<path d="M159.191 50.176C145.336 50.176 134.103 38.9437 134.103 25.088C134.103 11.2323 145.336 0 159.191 0C173.047 0 184.279 11.2323 184.279 25.088C184.279 38.9437 173.047 50.176 159.191 50.176Z" fill="#30BAEF"/>
<path d="M156.953 34.6583C156.389 34.6592 155.839 34.4766 155.388 34.138L155.36 34.117L149.464 29.6068C149.19 29.3974 148.961 29.1363 148.789 28.8384C148.617 28.5405 148.505 28.2116 148.46 27.8705C148.415 27.5294 148.438 27.1827 148.527 26.8503C148.615 26.5179 148.769 26.2063 148.978 25.9332C149.188 25.6602 149.449 25.431 149.747 25.2588C150.045 25.0867 150.373 24.9749 150.715 24.9298C151.056 24.8847 151.402 24.9073 151.735 24.9962C152.067 25.0851 152.379 25.2387 152.652 25.448L156.471 28.3766L165.495 16.6032C165.704 16.3303 165.965 16.1012 166.263 15.9291C166.561 15.757 166.89 15.6452 167.231 15.6002C167.572 15.5552 167.918 15.5777 168.251 15.6666C168.583 15.7555 168.894 15.9089 169.167 16.1182L169.168 16.1188L169.112 16.1965L169.169 16.1188C169.72 16.542 170.08 17.1664 170.171 17.8549C170.262 18.5435 170.076 19.24 169.654 19.7915L159.039 33.6333C158.794 33.9523 158.478 34.2104 158.117 34.3876C157.755 34.5648 157.358 34.6563 156.955 34.6551L156.953 34.6583Z" fill="white"/>
<path d="M0.462967 250H171.149C171.272 250 171.39 249.951 171.477 249.864C171.564 249.777 171.613 249.659 171.613 249.536C171.613 249.413 171.564 249.295 171.477 249.208C171.39 249.121 171.272 249.072 171.149 249.072H0.462967C0.339966 249.072 0.221985 249.121 0.13501 249.208C0.0480194 249.295 -0.000854492 249.413 -0.000854492 249.536C-0.000854492 249.659 0.0480194 249.777 0.13501 249.864C0.221985 249.951 0.339966 250 0.462967 250Z" fill="#1E252B"/>
</g>
<defs>
<clipPath id="clip0">
<rect width="279.127" height="250" fill="white" transform="matrix(-1 0 0 1 279.127 0)"/>
</clipPath>
</defs>
</svg>
