<svg width="84" height="90" viewBox="0 0 84 90" fill="none" xmlns="http://www.w3.org/2000/svg">
<path d="M18.789 81.1719L84.0007 12.0003L10.8628 12.4466L18.789 81.1719Z" fill="#43C59E"/>
<path d="M38.7495 27.6167V34.0835C38.7495 34.8218 38.5832 35.4689 38.2505 36.0249C37.9224 36.5809 37.4461 37.007 36.8218 37.3032C36.1974 37.5994 35.4591 37.7476 34.6069 37.7476C33.3218 37.7476 32.3237 37.4194 31.6128 36.7632C30.9019 36.1024 30.5464 35.2 30.5464 34.0562V27.6167H32.6587V33.7349C32.6587 34.505 32.8136 35.0701 33.1235 35.4302C33.4334 35.7902 33.9461 35.9702 34.6616 35.9702C35.3543 35.9702 35.8556 35.7902 36.1655 35.4302C36.48 35.0656 36.6372 34.4959 36.6372 33.7212V27.6167H38.7495ZM33.4722 26.8169V26.6323C34.256 25.7209 34.7915 25.035 35.0786 24.5747H37.4165V24.7183C37.1795 24.9552 36.7739 25.3084 36.1997 25.7778C35.63 26.2427 35.1834 26.589 34.8599 26.8169H33.4722ZM40.1509 40.5503C39.6724 40.5503 39.2554 40.5002 38.8999 40.3999V38.6362C39.2645 38.7274 39.5972 38.7729 39.8979 38.7729C40.3628 38.7729 40.6955 38.6271 40.896 38.3354C41.0965 38.0483 41.1968 37.5972 41.1968 36.9819V27.6167H43.3159V36.9683C43.3159 38.1349 43.0493 39.0236 42.5161 39.6343C41.9829 40.245 41.1945 40.5503 40.1509 40.5503Z" fill="white"/>
</svg>
